<?xml version="1.0" encoding="UTF-8"?>
<svg version="1.1" viewBox="0 0 40 40" xmlns="http://www.w3.org/2000/svg" xmlns:cc="http://creativecommons.org/ns#" xmlns:dc="http://purl.org/dc/elements/1.1/" xmlns:rdf="http://www.w3.org/1999/02/22-rdf-syntax-ns#">
<metadata>
<rdf:RDF>
<cc:Work rdf:about="">
<dc:format>image/svg+xml</dc:format>
<dc:type rdf:resource="http://purl.org/dc/dcmitype/StillImage"/>
<dc:title/>
</cc:Work>
</rdf:RDF>
</metadata>
<style>.st2{fill:red}.st3{fill:#e0e0e0}.st4{fill:none;stroke:#666;stroke-width:.5;stroke-miterlimit:10}</style>
<g transform="matrix(.12526 0 0 .12526 -51.572 -10.489)">
<rect x="417.48" y="89.499" width="308.27" height="308.27" fill="#b9b9b9" stroke="#000" stroke-linecap="round" stroke-linejoin="round" stroke-width="10.63"/>
<rect x="426.13" y="98.198" width="289.73" height="289.73" fill="#a6d9ab"/>
<rect x="561.74" y="97.891" width="35.433" height="35.433"/>
<rect x="478.78" y="98.141" width="31.181" height="32.008" stroke="#000" stroke-linecap="round" stroke-linejoin="round" stroke-width=".70866"/>
<g transform="translate(412.43 -660.13)" stroke-linecap="round" stroke-linejoin="round">
<circle cx="25.329" cy="1035.2" r="7.0469" fill="#b7b7b7" stroke="#494949" stroke-width="1.7717"/>
<circle cx="25.329" cy="1008.7" r="7.0469" fill="#b7b7b7" stroke="#494949" stroke-width="1.7717"/>
<circle cx="25.329" cy="982.08" r="7.0469" fill="#b7b7b7" stroke="#494949" stroke-width="1.7717"/>
<circle cx="25.329" cy="955.5" r="7.0469" fill="#b7b7b7" stroke="#494949" stroke-width="1.7717"/>
<circle cx="25.329" cy="928.93" r="7.0469" fill="#b7b7b7" stroke="#494949" stroke-width="1.7717"/>
<circle cx="25.329" cy="902.35" r="7.0469" fill="#b7b7b7" stroke="#494949" stroke-width="1.7717"/>
<circle cx="25.329" cy="875.78" r="7.0469" fill="#b7b7b7" stroke="#494949" stroke-width="1.7717"/>
<circle cx="25.329" cy="849.2" r="7.0469" fill="#b7b7b7" stroke="#494949" stroke-width="1.7717"/>
<circle cx="78.478" cy="1035.2" r="7.0469" fill="#b7b7b7" stroke="#494949" stroke-width="1.7717"/>
<circle cx="51.904" cy="1035.2" r="7.0469" fill="#b7b7b7" stroke="#494949" stroke-width="1.7717"/>
<circle cx="51.904" cy="1008.7" r="7.0469" fill="#b7b7b7" stroke="#494949" stroke-width="1.7717"/>
<circle cx="51.904" cy="982.08" r="7.0469" fill="#b7b7b7" stroke="#494949" stroke-width="1.7717"/>
<circle cx="51.904" cy="955.5" r="7.0469" fill="#b7b7b7" stroke="#494949" stroke-width="1.7717"/>
<circle cx="51.904" cy="928.93" r="7.0469" fill="#b7b7b7" stroke="#494949" stroke-width="1.7717"/>
<circle cx="51.904" cy="902.35" r="7.0469" fill="#b7b7b7" stroke="#494949" stroke-width="1.7717"/>
<circle cx="51.904" cy="875.78" r="7.0469" fill="#b7b7b7" stroke="#494949" stroke-width="1.7717"/>
<circle cx="51.904" cy="849.2" r="7.0469" fill="#b7b7b7" stroke="#494949" stroke-width="1.7717"/>
<circle transform="scale(-1,1)" cx="-291.08" cy="1035.2" r="7.0469" fill="#b7b7b7" stroke="#494949" stroke-width="1.7717"/>
<circle transform="scale(-1,1)" cx="-291.08" cy="1008.7" r="7.0469" fill="#b7b7b7" stroke="#494949" stroke-width="1.7717"/>
<circle transform="scale(-1,1)" cx="-291.08" cy="982.08" r="7.0469" fill="#b7b7b7" stroke="#494949" stroke-width="1.7717"/>
<circle transform="scale(-1,1)" cx="-291.08" cy="955.5" r="7.0469" fill="#b7b7b7" stroke="#494949" stroke-width="1.7717"/>
<circle transform="scale(-1,1)" cx="-291.08" cy="928.93" r="7.0469" fill="#b7b7b7" stroke="#494949" stroke-width="1.7717"/>
<circle transform="scale(-1,1)" cx="-291.08" cy="902.35" r="7.0469" fill="#b7b7b7" stroke="#494949" stroke-width="1.7717"/>
<circle transform="scale(-1,1)" cx="-291.08" cy="875.78" r="7.0469" fill="#b7b7b7" stroke="#494949" stroke-width="1.7717"/>
<circle transform="scale(-1,1)" cx="-291.08" cy="849.2" r="7.0469" fill="#b7b7b7" stroke="#494949" stroke-width="1.7717"/>
<circle transform="scale(-1,1)" cx="-237.93" cy="1035.2" r="7.0469" fill="#b7b7b7" stroke="#494949" stroke-width="1.7717"/>
<circle transform="scale(-1,1)" cx="-264.5" cy="1035.2" r="7.0469" fill="#b7b7b7" stroke="#494949" stroke-width="1.7717"/>
<circle transform="scale(-1,1)" cx="-264.5" cy="1008.7" r="7.0469" fill="#b7b7b7" stroke="#494949" stroke-width="1.7717"/>
<circle transform="scale(-1,1)" cx="-264.5" cy="982.08" r="7.0469" fill="#b7b7b7" stroke="#494949" stroke-width="1.7717"/>
<circle transform="scale(-1,1)" cx="-264.5" cy="955.5" r="7.0469" fill="#b7b7b7" stroke="#494949" stroke-width="1.7717"/>
<circle transform="scale(-1,1)" cx="-264.5" cy="928.93" r="7.0469" fill="#b7b7b7" stroke="#494949" stroke-width="1.7717"/>
<circle transform="scale(-1,1)" cx="-264.5" cy="902.35" r="7.0469" fill="#b7b7b7" stroke="#494949" stroke-width="1.7717"/>
<circle transform="scale(-1,1)" cx="-264.5" cy="875.78" r="7.0469" fill="#b7b7b7" stroke="#494949" stroke-width="1.7717"/>
<circle transform="scale(-1,1)" cx="-264.5" cy="849.2" r="7.0469" fill="#b7b7b7" stroke="#494949" stroke-width="1.7717"/>
<circle transform="scale(-1,1)" cx="-268.05" cy="771.25" r="7.0469" fill="#b7b7b7" stroke="#494949" stroke-width="1.7717"/>
<circle transform="scale(-1,1)" cx="-239.7" cy="771.25" r="7.0469" fill="#b7b7b7" stroke="#494949" stroke-width="1.7717"/>
<circle cx="37.73" cy="771.25" r="6.7323" stroke="#000" stroke-width=".70866"/>
</g>
<rect x="544.49" y="345.83" width="55.984" height="34.724" stroke="#000" stroke-linecap="round" stroke-linejoin="round" stroke-width="2.126"/>
<circle cx="524.73" cy="112.43" r="6.4209" fill="#0ff400" stroke="#005407" stroke-linecap="round" stroke-linejoin="round" stroke-width="1.5947"/>
<circle cx="544.69" cy="112.39" r="6.4602" fill="#ff6060" stroke="#9a0000" stroke-linecap="round" stroke-linejoin="round" stroke-width="1.6044"/>
</g>
</svg>
