<?xml version="1.0" encoding="UTF-8" standalone="no"?>
<!-- Created with Inkscape (http://www.inkscape.org/) -->

<svg
   xmlns:dc="http://purl.org/dc/elements/1.1/"
   xmlns:cc="http://creativecommons.org/ns#"
   xmlns:rdf="http://www.w3.org/1999/02/22-rdf-syntax-ns#"
   xmlns:svg="http://www.w3.org/2000/svg"
   xmlns="http://www.w3.org/2000/svg"
   xmlns:sodipodi="http://sodipodi.sourceforge.net/DTD/sodipodi-0.dtd"
   xmlns:inkscape="http://www.inkscape.org/namespaces/inkscape"
   width="3200"
   height="800"
   id="svg2"
   version="1.1"
   inkscape:version="0.92.4 (unknown)"
   sodipodi:docname="circle.svg">
  <defs
     id="defs4" />
  <sodipodi:namedview
     id="base"
     pagecolor="#ffffff"
     bordercolor="#666666"
     borderopacity="1.0"
     inkscape:pageopacity="0.0"
     inkscape:pageshadow="2"
     inkscape:zoom="0.3535534"
     inkscape:cx="1599.8674"
     inkscape:cy="105.55401"
     inkscape:document-units="px"
     inkscape:current-layer="g857"
     showgrid="false"
     inkscape:window-width="1064"
     inkscape:window-height="801"
     inkscape:window-x="1327"
     inkscape:window-y="110"
     inkscape:window-maximized="0" />
  <metadata
     id="metadata7">
    <rdf:RDF>
      <cc:Work
         rdf:about="">
        <dc:format>image/svg+xml</dc:format>
        <dc:type
           rdf:resource="http://purl.org/dc/dcmitype/StillImage" />
        <dc:title />
      </cc:Work>
    </rdf:RDF>
  </metadata>
  <g
     inkscape:label="1-default"
     inkscape:groupmode="layer"
     id="layer1"
     transform="translate(0,-252.36218)"
     style="display:inline">
    <g
       id="layer1-6"
       inkscape:label="Layer 1"
       transform="matrix(3.7795276,0,0,3.7795276,612.01299,-1353.4129)">
      <g
         transform="matrix(1.1995983,0,0,1.1995983,-16.037494,-57.67309)"
         id="g952">
        <g
           id="g1243"
           transform="matrix(1.5237015,0,0,1.5237015,-108.97728,276.20158)">
          <g
             style="fill:none;stroke:#000000;stroke-width:0.26055491;stroke-linecap:round;stroke-miterlimit:4;stroke-dasharray:none;stroke-opacity:1"
             id="g857"
             transform="matrix(0.98786978,0,0,1.4013718,116.34066,-57.224978)">
            <g
               id="g1128"
               transform="matrix(1.068201,0,0,1.0132739,157.17167,-2.5922322)">
              <g
                 id="g1188">
                <ellipse
                   style="fill:none;fill-opacity:1;stroke:#000000;stroke-width:0.40611857;stroke-miterlimit:4;stroke-dasharray:none;stroke-opacity:1"
                   id="path1092"
                   cx="-45.762882"
                   cy="141.88982"
                   rx="54.672073"
                   ry="40.574471" />
              </g>
            </g>
            <g
               aria-label="Hallo"
               transform="scale(1.1834348,0.84499798)"
               style="font-style:normal;font-variant:normal;font-weight:bold;font-stretch:normal;font-size:30.16157341px;line-height:1.25;font-family:sans-serif;-inkscape-font-specification:'sans-serif Bold';letter-spacing:0px;word-spacing:0px;fill:none;fill-opacity:1;stroke:#000000;stroke-width:0.07344708;stroke-opacity:1;stroke-miterlimit:4;stroke-dasharray:none"
               id="text1268">
              <g
                 id="g1290"
                 style="stroke-width:0.07344708;stroke-miterlimit:4;stroke-dasharray:none">
                <g
                   id="g1692">
                  <path
                     d="m 124.17319,164.84642 q -1.75255,0 -2.68037,1.26655 -0.9131,1.25183 -0.9131,3.62293 0,2.3711 0.9131,3.63765 0.92782,1.25182 2.68037,1.25182 1.7231,0 2.63619,-1.25182 0.9131,-1.26655 0.9131,-3.63765 0,-2.3711 -0.9131,-3.62293 -0.91309,-1.26655 -2.63619,-1.26655 z m 0,-3.77019 q 4.2562,0 6.64203,2.29746 2.40055,2.29746 2.40055,6.36221 0,4.06474 -2.40055,6.3622 -2.38583,2.29747 -6.64203,2.29747 -4.27092,0 -6.68621,-2.29747 -2.40055,-2.29746 -2.40055,-6.3622 0,-4.06475 2.40055,-6.36221 2.41529,-2.29746 6.68621,-2.29746 z"
                     style="font-style:normal;font-variant:normal;font-weight:bold;font-stretch:normal;font-family:sans-serif;-inkscape-font-specification:'sans-serif Bold';stroke-width:0.07344708;fill:none;stroke:#000000;stroke-opacity:1;stroke-miterlimit:4;stroke-dasharray:none"
                     id="path1278" />
                  <path
                     id="path1690"
                     style="stroke:#000000;stroke-width:0.07344708;fill:none"
                     d="M 116.743205,164.402987 l -0.454239,0.636170 M 116.102455,165.969820 l 1.870031,-2.619011 M 118.778640,162.891226 l -3.105966,4.349961 c -0.239002,0.334726 -0.186177,0.930197 0.052824,0.595471 l 3.655842,-5.120072 c 0.239002,-0.334726 0.929901,-0.632891 0.690899,-0.298165 l -4.435673,6.212239 c -0.239002,0.334726 -0.276432,1.056600 -0.037431,0.721874 l 5.229162,-7.323535 c 0.239002,-0.334726 0.675753,-0.276952 0.436751,0.057774 l -5.641794,7.901434 c -0.239002,0.334726 -0.200563,0.950344 0.038439,0.615618 l 6.170976,-8.642563 c 0.239002,-0.334726 0.757671,-0.391680 0.518669,-0.056954 l -6.629369,9.284550 c -0.239002,0.334726 -0.128944,0.850040 0.110058,0.515314 l 7.043632,-9.864732 c 0.239002,-0.334726 0.729098,-0.351663 0.490097,-0.016937 l -7.416402,10.386804 c -0.239002,0.334726 -0.091370,0.797417 0.147631,0.462691 l 7.765529,-10.875763 c 0.239002,-0.334726 0.705451,-0.318545 0.466449,0.016181 l -8.065785,11.296276 c -0.239002,0.334726 -0.056815,0.749023 0.182186,0.414297 l 4.026790,-5.639591 M 122.778822,164.652870 l 2.037612,-2.853712 c 0.239002,-0.334726 0.671892,-0.271544 0.432890,0.063182 l -1.642075,2.299755 c -0.239002,0.334726 0.250927,0.318024 0.489929,-0.016702 l 1.669389,-2.338010 c 0.239002,-0.334726 0.599047,-0.169525 0.360046,0.165201 l -1.565986,2.193192 c -0.239002,0.334726 0.224276,0.355350 0.463277,0.020624 l 1.522150,-2.131799 c 0.239002,-0.334726 0.652700,-0.244667 0.413699,0.090059 l -1.560108,2.184959 c -0.239002,0.334726 0.182961,0.413212 0.421963,0.078486 l 1.533595,-2.147828 c 0.239002,-0.334726 0.631405,-0.214842 0.392403,0.119884 l -1.574497,2.205111 c -0.239002,0.334726 0.087393,0.547056 0.326395,0.212330 l 1.619226,-2.267755 c 0.239002,-0.334726 0.609247,-0.183809 0.370245,0.150917 l -1.692687,2.370639 c -0.239002,0.334726 0.029522,0.628105 0.268524,0.293379 l 1.770620,-2.479785 c 0.239002,-0.334726 0.586181,-0.151505 0.347179,0.183221 l -1.871153,2.620583 c -0.239002,0.334726 -0.025967,0.705818 0.213035,0.371093 l 1.979560,-2.772409 c 0.239002,-0.334726 0.562173,-0.117882 0.323172,0.216844 l -2.106534,2.950239 c -0.239002,0.334726 -0.084377,0.787624 0.154624,0.452898 l 2.247980,-3.148336 c 0.239002,-0.334726 0.537193,-0.082897 0.298192,0.251829 l -2.405807,3.369376 c -0.239002,0.334726 -0.144705,0.872113 0.094297,0.537388 l 2.582494,-3.616829 c 0.239002,-0.334726 0.511465,-0.046865 0.272464,0.287861 l -2.776876,3.889064 c -0.239002,0.334726 -0.265044,1.040651 -0.026042,0.705925 l 3.046504,-4.266683 c 0.239002,-0.334726 0.480735,-0.003827 0.241734,0.330899 l -3.222777,4.513557 c -0.239002,0.334726 -0.240985,1.006956 -0.001984,0.672230 l 3.438832,-4.816146 c 0.239002,-0.334726 0.444747,0.046576 0.205745,0.381302 l -4.021121,5.631652 M 120.261688,168.847612 l -3.608260,5.053433 c -0.239002,0.334726 -0.024637,0.703957 0.214364,0.369231 l 3.204262,-4.487626 c 0.239002,-0.334726 0.251438,0.317309 0.012436,0.652035 l -2.973112,4.163897 c -0.239002,0.334726 0.008055,0.658170 0.247057,0.323444 l 2.757987,-3.862611 c 0.239002,-0.334726 0.321365,0.219374 0.082363,0.554100 l -2.569368,3.598446 c -0.239002,0.334726 0.031981,0.624661 0.270983,0.289935 l 2.392468,-3.350694 c 0.239002,-0.334726 0.382977,0.133085 0.143976,0.467811 l -2.234888,3.130000 c -0.239002,0.334726 0.058344,0.587740 0.297346,0.253014 l 2.091593,-2.929313 c 0.239002,-0.334726 0.437935,0.056116 0.198934,0.390841 l -1.964796,2.751732 c -0.239002,0.334726 0.083460,0.552565 0.322461,0.217839 l 1.854282,-2.596955 c 0.239002,-0.334726 0.489964,-0.016752 0.250963,0.317974 l -1.756120,2.459477 c -0.239002,0.334726 0.108248,0.517849 0.347250,0.183123 l 1.680672,-2.353811 c 0.239002,-0.334726 0.540674,-0.087771 0.301672,0.246955 l -1.610696,2.255808 c -0.239002,0.334726 0.132715,0.483582 0.371716,0.148856 l 1.568279,-2.196403 c 0.239002,-0.334726 0.594301,-0.162877 0.355299,0.171849 l -1.530250,2.143143 c -0.239002,0.334726 0.156866,0.449758 0.395868,0.115032 l 1.557514,-2.181327 c 0.239002,-0.334726 0.617489,-0.195353 0.378488,0.139373 l -1.521798,2.131305 c -0.239002,0.334726 0.180709,0.416366 0.419711,0.081640 l 1.572462,-2.202262 c 0.239002,-0.334726 0.695335,-0.304377 0.456333,0.030349 l -1.667905,2.335931 c -0.239002,0.334726 0.277684,0.280550 0.516686,-0.054176 l 1.642001,-2.299652 c 0.239002,-0.334726 0.877333,-0.559269 0.638331,-0.224543 l -1.843724,2.582168 c -0.239002,0.334726 0.244622,0.326854 0.483624,-0.007872 l 8.044102,-11.265909 c 0.239002,-0.334726 0.402685,0.105484 0.163684,0.440210 l -7.741294,10.841821 c -0.239002,0.334726 0.257339,0.309044 0.496340,-0.025682 l 7.392585,-10.353448 c 0.239002,-0.334726 0.353598,0.174232 0.114596,0.508958 l -7.017038,9.827487 c -0.239002,0.334726 0.285218,0.269999 0.524219,-0.064726 l 6.602876,-9.247446 c 0.239002,-0.334726 0.296299,0.254480 0.057297,0.589206 l -6.141306,8.601010 c -0.239002,0.334726 0.329107,0.208531 0.568109,-0.126195 l 5.608372,-7.854626 c 0.239002,-0.334726 0.263120,0.300947 0.024119,0.635673 l -5.377892,7.531834 M 132.842935,170.641454 l -4.575594,6.408201 c -0.239002,0.334726 0.455454,0.031581 0.694455,-0.303145 l 3.787102,-5.303904 M 129.571859,176.561559 l 2.987319,-4.183793 M 132.211406,173.534277 l -1.863290,2.609571 M 131.575203,175.094743 l 0.457431,-0.640640" />
                </g>
              </g>
              <g
                 id="g1295"
                 style="stroke-width:0.07344708;stroke-miterlimit:4;stroke-dasharray:none">
                <g
                   id="g1698">
                  <path
                     d="m 82.597938,170.5459 q -1.649461,0 -2.488919,0.55964 -0.824731,0.55964 -0.824731,1.64946 0,1.00146 0.66273,1.57582 0.677457,0.55964 1.870371,0.55964 1.487461,0 2.503646,-1.06036 1.016186,-1.0751 1.016186,-2.68038 v -0.60382 z m 8.05585,-1.98819 v 9.41077 h -5.316567 v -2.44474 q -1.060368,1.50219 -2.385827,2.19437 -1.32546,0.67746 -3.225286,0.67746 -2.562555,0 -4.167834,-1.48746 -1.590552,-1.50219 -1.590552,-3.88802 0,-2.90128 1.988189,-4.2562 2.002917,-1.35491 6.273843,-1.35491 h 3.107467 v -0.41237 q 0,-1.25182 -0.986731,-1.82619 -0.986731,-0.58909 -3.078012,-0.58909 -1.693643,0 -3.151649,0.33873 -1.458006,0.33873 -2.709829,1.01619 v -4.02057 q 1.693643,-0.41236 3.402014,-0.61854 1.70837,-0.22091 3.41674,-0.22091 4.462382,0 6.435844,1.76728 1.98819,1.75255 1.98819,5.7142 z"
                     style="font-style:normal;font-variant:normal;font-weight:bold;font-stretch:normal;font-family:sans-serif;-inkscape-font-specification:'sans-serif Bold';stroke-width:0.07344708;fill:none;stroke:#000000;stroke-opacity:1;stroke-miterlimit:4;stroke-dasharray:none"
                     id="path1272" />
                  <path
                     id="path1696"
                     style="stroke:#000000;stroke-width:0.07344708;fill:none"
                     d="M 75.748999,163.044032 l 0.428025,-0.599457 c 0.239002,-0.334726 0.813944,-0.470491 0.574942,-0.135765 l -0.823717,1.153630 c -0.239002,0.334726 -0.239002,1.004178 0.000000,0.669452 l 1.359564,-1.904094 c 0.239002,-0.334726 0.774849,-0.415739 0.535848,-0.081013 l -1.895412,2.654559 c -0.239002,0.334726 0.223106,0.356988 0.462107,0.022262 l 2.034225,-2.848968 c 0.239002,-0.334726 0.700140,-0.311107 0.461138,0.023619 l -1.835619,2.570817 c -0.239002,0.334726 0.377107,0.141306 0.616109,-0.193420 l 1.733077,-2.427205 c 0.239002,-0.334726 0.752568,-0.384533 0.513566,-0.049807 l -1.637757,2.293708 c -0.239002,0.334726 0.300598,0.248459 0.539600,-0.086267 l 1.608477,-2.252701 c 0.239002,-0.334726 0.728299,-0.350544 0.489297,-0.015818 l -1.554847,2.177591 c -0.239002,0.334726 0.303926,0.243798 0.542927,-0.090927 l 1.501217,-2.102482 c 0.239002,-0.334726 0.734813,-0.359667 0.495811,-0.024941 l -1.510093,2.114912 c -0.239002,0.334726 0.257361,0.309013 0.496362,-0.025713 l 1.483138,-2.077161 c 0.239002,-0.334726 0.771764,-0.411417 0.532762,-0.076692 l -1.519538,2.128140 c -0.239002,0.334726 0.230816,0.346189 0.469818,0.011463 l 1.448370,-2.028468 c 0.239002,-0.334726 0.690282,-0.297301 0.451281,0.037425 l -1.434178,2.008592 c -0.239002,0.334726 0.206084,0.380827 0.445086,0.046101 l 1.435933,-2.011050 c 0.239002,-0.334726 0.670793,-0.270006 0.431791,0.064720 l -1.430814,2.003880 c -0.239002,0.334726 0.172655,0.427646 0.411656,0.092920 l 1.448120,-2.028118 c 0.239002,-0.334726 0.649780,-0.240577 0.410779,0.094149 l -1.456422,2.039745 c -0.239002,0.334726 0.125339,0.493912 0.364341,0.159186 l 1.499890,-2.100623 c 0.239002,-0.334726 0.627059,-0.208756 0.388058,0.125970 l -1.527791,2.139699 c -0.239002,0.334726 0.060251,0.585069 0.299253,0.250343 l 1.611207,-2.256524 c 0.239002,-0.334726 0.602412,-0.174237 0.363410,0.160489 l -1.703693,2.386052 c -0.239002,0.334726 0.002915,0.665369 0.241917,0.330643 l 1.814416,-2.541122 c 0.239002,-0.334726 0.592026,-0.159691 0.353024,0.175035 l -2.008347,2.812725 c -0.239002,0.334726 -0.178377,0.919272 0.060624,0.584546 l 2.247855,-3.148161 c 0.239002,-0.334726 0.544452,-0.093063 0.305450,0.241663 l -4.505410,6.309908 c -0.239002,0.334726 -0.717005,0.334726 -0.478003,0.000000 l 1.205328,-1.688083 c 0.239002,-0.334726 -0.239002,-0.334726 -0.478003,0.000000 l -1.202391,1.683970 c -0.239002,0.334726 -0.732940,0.357044 -0.493939,0.022318 l 1.218327,-1.706289 c 0.239002,-0.334726 -0.239002,-0.334726 -0.478003,0.000000 l -1.243519,1.741571 c -0.239002,0.334726 -0.769716,0.408549 -0.530715,0.073824 l 1.296231,-1.815394 c 0.239002,-0.334726 -0.239002,-0.334726 -0.478003,0.000000 l -1.839623,2.576425 M 74.534650,170.769816 l 1.007441,-1.410939 c 0.239002,-0.334726 0.838922,-0.505474 0.599921,-0.170748 l -1.689350,2.365965 M 74.334320,172.389286 l 2.451786,-3.433769 c 0.239002,-0.334726 0.891690,-0.579376 0.652689,-0.244650 l -2.950085,4.131647 c -0.239002,0.334726 -0.198119,0.946921 0.040883,0.612195 l 3.603417,-5.046650 c 0.239002,-0.334726 0.695085,-0.304027 0.456083,0.030699 l -3.966309,5.554887 c -0.239002,0.334726 -0.102147,0.812510 0.136855,0.477784 l 4.364172,-6.112102 c 0.239002,-0.334726 0.773720,-0.414156 0.534718,-0.079430 l -4.725391,6.617995 c -0.239002,0.334726 -0.034659,0.717993 0.204342,0.383267 l 5.046904,-7.068279 c 0.239002,-0.334726 0.731955,-0.355664 0.492953,-0.020938 l -5.309500,7.436050 c -0.239002,0.334726 0.013358,0.650743 0.252360,0.316017 l 5.550093,-7.773005 c 0.239002,-0.334726 0.731955,-0.355664 0.492953,-0.020938 l -5.769238,8.079921 c -0.239002,0.334726 0.057190,0.589356 0.296192,0.254630 l 2.658943,-3.723897 c 0.239002,-0.334726 0.196624,0.394077 -0.042378,0.728803 l -2.303938,3.226707 c -0.239002,0.334726 0.083211,0.552913 0.322213,0.218187 l 2.105131,-2.948273 c 0.239002,-0.334726 0.426473,0.072168 0.187472,0.406894 l -1.940513,2.717723 c -0.239002,0.334726 0.129558,0.488003 0.368560,0.153277 l 1.807997,-2.532132 c 0.239002,-0.334726 0.515380,-0.052347 0.276378,0.282379 l -1.690644,2.367777 c -0.239002,0.334726 0.165831,0.437202 0.404833,0.102476 l 1.601473,-2.242891 c 0.239002,-0.334726 0.633580,-0.217888 0.394578,0.116838 l -1.591218,2.228530 c -0.239002,0.334726 0.217455,0.364902 0.456457,0.030176 l 1.505313,-2.108218 c 0.239002,-0.334726 0.663316,-0.259534 0.424314,0.075192 l -1.476263,2.067533 c -0.239002,0.334726 0.213143,0.370941 0.452145,0.036215 l 1.476068,-2.067260 c 0.239002,-0.334726 0.801349,-0.452852 0.562347,-0.118126 l -1.524459,2.135032 c -0.239002,0.334726 0.179811,0.417623 0.418813,0.082897 l 1.751432,-2.452911 c 0.239002,-0.334726 0.890605,-0.577857 0.651604,-0.243131 l -1.764736,2.471544 c -0.239002,0.334726 0.363530,0.160322 0.602531,-0.174404 l 7.648263,-10.711530 c 0.239002,-0.334726 0.123028,-0.841755 -0.115973,-0.507029 l -4.451930,6.235008 M 84.114588,170.072526 l 4.483883,-6.279758 c 0.239002,-0.334726 0.499481,-0.030081 0.260480,0.304645 l -4.087108,5.724068 c -0.239002,0.334726 0.239002,0.334726 0.478003,0.000000 l 3.853268,-5.396571 c 0.239002,-0.334726 0.449274,0.040235 0.210273,0.374961 l -3.594999,5.034861 c -0.239002,0.334726 -0.102917,0.813589 0.136085,0.478863 l 3.651044,-5.113353 c 0.239002,-0.334726 0.413711,0.090042 0.174710,0.424767 l -4.010335,5.616545 M 82.781073,177.295752 l 7.252272,-10.156937 c 0.239002,-0.334726 0.294616,0.256836 0.055615,0.591562 l -6.469571,9.060750 M 84.390356,176.380826 l 5.731065,-8.026459 c 0.239002,-0.334726 0.259811,0.305582 0.020809,0.640308 l -4.287759,6.005083 c -0.239002,0.334726 -0.239002,1.004178 0.000000,0.669452 l 4.282066,-5.997111 c 0.239002,-0.334726 0.239002,0.334726 0.000000,0.669452 l -4.282066,5.997111 c -0.239002,0.334726 -0.239002,1.004178 0.000000,0.669452 l 4.282066,-5.997111 c 0.239002,-0.334726 0.239002,0.334726 0.000000,0.669452 l -3.972535,5.563607 c -0.239002,0.334726 0.239002,0.334726 0.478003,0.000000 l 3.494532,-4.894155 c 0.239002,-0.334726 0.239002,0.334726 0.000000,0.669452 l -3.016529,4.224703 c -0.239002,0.334726 0.239002,0.334726 0.478003,0.000000 l 2.538526,-3.555251 c 0.239002,-0.334726 0.239002,0.334726 0.000000,0.669452 l -2.060523,2.885799 c -0.239002,0.334726 0.239002,0.334726 0.478003,0.000000 l 1.582520,-2.216348 c 0.239002,-0.334726 0.239002,0.334726 0.000000,0.669452 l -1.104517,1.546896 c -0.239002,0.334726 0.239002,0.334726 0.478003,0.000000 l 0.626514,-0.877444 c 0.239002,-0.334726 0.239002,0.334726 0.000000,0.669452 l -0.327762,0.459037" />
                </g>
              </g>
              <g
                 id="g1300"
                 style="stroke-width:0.07344708;stroke-miterlimit:4;stroke-dasharray:none">
                <g
                   id="g1704">
                  <path
                     d="m 105.95548,155.05275 h 5.27239 v 22.91573 h -5.27239 z"
                     style="font-style:normal;font-variant:normal;font-weight:bold;font-stretch:normal;font-family:sans-serif;-inkscape-font-specification:'sans-serif Bold';stroke-width:0.07344708;fill:none;stroke:#000000;stroke-opacity:1;stroke-miterlimit:4;stroke-dasharray:none"
                     id="path1276" />
                  <path
                     id="path1702"
                     style="stroke:#000000;stroke-width:0.07344708;fill:none"
                     d="M 106.293479,156.052214 l 0.196388,-0.275045 c 0.239002,-0.334726 0.717005,-0.334726 0.478003,0.000000 l -0.495140,0.693453 c -0.239002,0.334726 -0.239002,1.004178 0.000000,0.669452 l 0.973143,-1.362905 c 0.239002,-0.334726 0.717005,-0.334726 0.478003,0.000000 l -1.451146,2.032356 c -0.239002,0.334726 -0.239002,1.004178 0.000000,0.669452 l 1.929149,-2.701808 c 0.239002,-0.334726 0.717005,-0.334726 0.478003,0.000000 l -2.407152,3.371260 c -0.239002,0.334726 -0.239002,1.004178 0.000000,0.669452 l 2.885155,-4.040712 c 0.239002,-0.334726 0.717005,-0.334726 0.478003,0.000000 l -3.363158,4.710164 c -0.239002,0.334726 -0.239002,1.004178 0.000000,0.669452 l 3.841161,-5.379615 c 0.239002,-0.334726 0.635729,-0.220899 0.396728,0.113827 l -4.237889,5.935240 c -0.239002,0.334726 -0.239002,1.004178 0.000000,0.669452 l 4.237889,-5.935240 c 0.239002,-0.334726 0.239002,0.334726 0.000000,0.669452 l -4.237889,5.935240 c -0.239002,0.334726 -0.239002,1.004178 0.000000,0.669452 l 4.237889,-5.935240 c 0.239002,-0.334726 0.239002,0.334726 0.000000,0.669452 l -4.237889,5.935240 c -0.239002,0.334726 -0.239002,1.004178 0.000000,0.669452 l 4.237889,-5.935240 c 0.239002,-0.334726 0.239002,0.334726 0.000000,0.669452 l -4.237889,5.935240 c -0.239002,0.334726 -0.239002,1.004178 0.000000,0.669452 l 4.237889,-5.935240 c 0.239002,-0.334726 0.239002,0.334726 0.000000,0.669452 l -4.237889,5.935240 c -0.239002,0.334726 -0.239002,1.004178 0.000000,0.669452 l 4.237889,-5.935240 c 0.239002,-0.334726 0.239002,0.334726 0.000000,0.669452 l -4.237889,5.935240 c -0.239002,0.334726 -0.239002,1.004178 0.000000,0.669452 l 4.237889,-5.935240 c 0.239002,-0.334726 0.239002,0.334726 0.000000,0.669452 l -4.237889,5.935240 c -0.239002,0.334726 -0.239002,1.004178 0.000000,0.669452 l 4.237889,-5.935240 c 0.239002,-0.334726 0.239002,0.334726 0.000000,0.669452 l -4.237889,5.935240 c -0.239002,0.334726 -0.239002,1.004178 0.000000,0.669452 l 4.237889,-5.935240 c 0.239002,-0.334726 0.239002,0.334726 0.000000,0.669452 l -4.237889,5.935240 c -0.239002,0.334726 -0.239002,1.004178 0.000000,0.669452 l 4.237889,-5.935240 c 0.239002,-0.334726 0.239002,0.334726 0.000000,0.669452 l -4.237889,5.935240 c -0.239002,0.334726 -0.239002,1.004178 0.000000,0.669452 l 4.237889,-5.935240 c 0.239002,-0.334726 0.239002,0.334726 0.000000,0.669452 l -4.237889,5.935240 c -0.239002,0.334726 -0.239002,1.004178 0.000000,0.669452 l 4.237889,-5.935240 c 0.239002,-0.334726 0.239002,0.334726 0.000000,0.669452 l -4.237889,5.935240 c -0.239002,0.334726 -0.239002,1.004178 0.000000,0.669452 l 4.237889,-5.935240 c 0.239002,-0.334726 0.239002,0.334726 0.000000,0.669452 l -3.774477,5.286222 c -0.239002,0.334726 0.239002,0.334726 0.478003,0.000000 l 3.296474,-4.616770 c 0.239002,-0.334726 0.239002,0.334726 0.000000,0.669452 l -2.818471,3.947319 c -0.239002,0.334726 0.239002,0.334726 0.478003,0.000000 l 2.340468,-3.277867 c 0.239002,-0.334726 0.239002,0.334726 0.000000,0.669452 l -1.862465,2.608415 c -0.239002,0.334726 0.239002,0.334726 0.478003,0.000000 l 1.384462,-1.938963 c 0.239002,-0.334726 0.239002,0.334726 0.000000,0.669452 l -0.906459,1.269511 c -0.239002,0.334726 0.239002,0.334726 0.478003,0.000000 l 0.453229,-0.634756 c 0.205970,-0.288464 0.205970,0.380987 0.000000,0.669452 l -0.154477,0.216348" />
                </g>
              </g>
              <g
                 id="g1305"
                 style="stroke-width:0.07344708;stroke-miterlimit:4;stroke-dasharray:none">
                <g
                   id="g1349">
                  <g
                     id="g1379">
                    <g
                       id="g1710">
                      <path
                         d="m 50.168354,155.98057 h 5.670023 v 8.37985 h 8.365124 v -8.37985 h 5.670022 v 21.98791 h -5.670022 v -9.32241 h -8.365124 v 9.32241 h -5.670023 z"
                         style="font-style:normal;font-variant:normal;font-weight:bold;font-stretch:normal;font-family:sans-serif;-inkscape-font-specification:'sans-serif Bold';stroke-width:0.07344708;fill:none;stroke:#000000;stroke-opacity:1;stroke-miterlimit:4;stroke-dasharray:none"
                         id="path1270" />
                      <path
                         id="path1708"
                         style="stroke:#000000;stroke-width:0.07344708;fill:none"
                         d="M 50.506353,156.687954 l 0.083544,-0.117005 c 0.111392,-0.156007 0.589395,-0.156007 0.478003,0.000000 l -0.382296,0.535413 c -0.239002,0.334726 -0.239002,1.004178 0.000000,0.669452 l 0.764592,-1.070825 c 0.239002,-0.334726 0.717005,-0.334726 0.478003,0.000000 l -1.242595,1.740277 c -0.239002,0.334726 -0.239002,1.004178 0.000000,0.669452 l 1.720598,-2.409729 c 0.239002,-0.334726 0.717005,-0.334726 0.478003,0.000000 l -2.198601,3.079180 c -0.239002,0.334726 -0.239002,1.004178 0.000000,0.669452 l 2.676604,-3.748632 c 0.239002,-0.334726 0.717005,-0.334726 0.478003,0.000000 l -3.154607,4.418084 c -0.239002,0.334726 -0.239002,1.004178 0.000000,0.669452 l 3.632610,-5.087536 c 0.239002,-0.334726 0.717005,-0.334726 0.478003,0.000000 l -4.110613,5.756988 c -0.239002,0.334726 -0.239002,1.004178 0.000000,0.669452 l 4.588617,-6.426440 c 0.239002,-0.334726 0.285907,0.269033 0.046906,0.603759 l -4.635522,6.492132 c -0.239002,0.334726 -0.239002,1.004178 0.000000,0.669452 l 4.635522,-6.492132 c 0.239002,-0.334726 0.239002,0.334726 0.000000,0.669452 l -4.635522,6.492132 c -0.239002,0.334726 -0.239002,1.004178 0.000000,0.669452 l 4.635522,-6.492132 c 0.239002,-0.334726 0.239002,0.334726 0.000000,0.669452 l -4.635522,6.492132 c -0.239002,0.334726 -0.239002,1.004178 0.000000,0.669452 l 4.635522,-6.492132 c 0.239002,-0.334726 0.239002,0.334726 0.000000,0.669452 l -4.635522,6.492132 c -0.239002,0.334726 -0.239002,1.004178 0.000000,0.669452 l 4.635522,-6.492132 c 0.239002,-0.334726 0.239002,0.334726 0.000000,0.669452 l -4.635522,6.492132 c -0.239002,0.334726 -0.239002,1.004178 0.000000,0.669452 l 4.635522,-6.492132 c 0.239002,-0.334726 0.239002,0.334726 0.000000,0.669452 l -4.635522,6.492132 c -0.239002,0.334726 -0.239002,1.004178 0.000000,0.669452 l 4.635522,-6.492132 c 0.239002,-0.334726 0.422742,0.077395 0.183740,0.412121 l -4.819262,6.749463 c -0.239002,0.334726 -0.239002,1.004178 0.000000,0.669452 l 5.297265,-7.418915 c 0.239002,-0.334726 0.717005,-0.334726 0.478003,0.000000 l -5.775268,8.088367 c -0.239002,0.334726 -0.239002,1.004178 0.000000,0.669452 l 6.253271,-8.757819 c 0.239002,-0.334726 0.717005,-0.334726 0.478003,0.000000 l -6.731275,9.427270 c -0.239002,0.334726 -0.239002,1.004178 0.000000,0.669452 l 7.209278,-10.096722 c 0.239002,-0.334726 0.717005,-0.334726 0.478003,0.000000 l -7.687281,10.766174 c -0.239002,0.334726 -0.239002,1.004178 0.000000,0.669452 l 4.635522,-6.492132 c 0.239002,-0.334726 0.239002,0.334726 0.000000,0.669452 l -4.635522,6.492132 c -0.239002,0.334726 0.200340,0.388871 0.439342,0.054146 l 4.196180,-5.876826 c 0.239002,-0.334726 0.239002,0.334726 0.000000,0.669452 l -3.718177,5.207374 c -0.239002,0.334726 0.239002,0.334726 0.478003,0.000000 l 3.240174,-4.537922 c 0.239002,-0.334726 0.239002,0.334726 0.000000,0.669452 l -2.762171,3.868470 c -0.239002,0.334726 0.239002,0.334726 0.478003,0.000000 l 2.284168,-3.199019 c 0.239002,-0.334726 0.239002,0.334726 0.000000,0.669452 l -1.806165,2.529567 c -0.239002,0.334726 0.239002,0.334726 0.478003,0.000000 l 1.328162,-1.860115 c 0.239002,-0.334726 0.239002,0.334726 0.000000,0.669452 l -0.850159,1.190663 c -0.239002,0.334726 0.239002,0.334726 0.478003,0.000000 l 0.425080,-0.595332 c 0.168437,-0.235899 0.168437,0.433553 0.000000,0.669452 l -0.126328,0.176924 M 64.541500,157.115034 l 0.292781,-0.410046 c 0.239002,-0.334726 0.717005,-0.334726 0.478003,0.000000 l -0.591533,0.828453 c -0.239002,0.334726 -0.239002,1.004178 0.000000,0.669452 l 1.069536,-1.497905 c 0.239002,-0.334726 0.717005,-0.334726 0.478003,0.000000 l -1.547539,2.167357 c -0.239002,0.334726 -0.239002,1.004178 0.000000,0.669452 l 2.025542,-2.836809 c 0.239002,-0.334726 0.717005,-0.334726 0.478003,0.000000 l -2.503546,3.506260 c -0.239002,0.334726 -0.239002,1.004178 0.000000,0.669452 l 2.981549,-4.175712 c 0.239002,-0.334726 0.717005,-0.334726 0.478003,0.000000 l -3.459552,4.845164 c -0.239002,0.334726 -0.239002,1.004178 0.000000,0.669452 l 3.937555,-5.514616 c 0.239002,-0.334726 0.717005,-0.334726 0.478003,0.000000 l -4.415558,6.184068 c -0.239002,0.334726 -0.239002,1.004178 0.000000,0.669452 l 4.635521,-6.492131 c 0.239002,-0.334726 0.239002,0.334726 0.000000,0.669452 l -7.272897,10.185823 c -0.239002,0.334726 -0.717005,0.334726 -0.478003,0.000000 l 2.025546,-2.836813 c 0.239002,-0.334726 -0.239002,-0.334726 -0.478003,0.000000 l -2.025546,2.836813 c -0.239002,0.334726 -0.717005,0.334726 -0.478003,0.000000 l 2.025546,-2.836813 c 0.239002,-0.334726 -0.239002,-0.334726 -0.478003,0.000000 l -2.025546,2.836813 c -0.239002,0.334726 -0.717005,0.334726 -0.478003,0.000000 l 2.025546,-2.836813 c 0.239002,-0.334726 -0.239002,-0.334726 -0.478003,0.000000 l -2.025546,2.836813 c -0.239002,0.334726 -0.717005,0.334726 -0.478003,0.000000 l 2.025546,-2.836813 c 0.239002,-0.334726 -0.239002,-0.334726 -0.478003,0.000000 l -2.025546,2.836813 c -0.239002,0.334726 -0.717005,0.334726 -0.478003,0.000000 l 2.025546,-2.836813 c 0.239002,-0.334726 -0.239002,-0.334726 -0.478003,0.000000 l -2.025546,2.836813 c -0.239002,0.334726 -0.717005,0.334726 -0.478003,0.000000 l 2.204797,-3.087858 M 69.535524,158.154236 l -6.974145,9.767415 c -0.239002,0.334726 0.239002,0.334726 0.478003,0.000000 l 6.316891,-8.846919 c 0.239002,-0.334726 0.239002,0.334726 0.000000,0.669452 l -5.838888,8.177467 c -0.239002,0.334726 0.239002,0.334726 0.478003,0.000000 l 5.360885,-7.508015 c 0.239002,-0.334726 0.239002,0.334726 0.000000,0.669452 l -4.882882,6.838564 c -0.239002,0.334726 0.008359,0.657745 0.247361,0.323019 l 4.635521,-6.492131 c 0.239002,-0.334726 0.239002,0.334726 0.000000,0.669452 l -4.635521,6.492131 c -0.239002,0.334726 -0.239002,1.004178 0.000000,0.669452 l 4.635521,-6.492131 c 0.239002,-0.334726 0.239002,0.334726 0.000000,0.669452 l -4.635521,6.492131 c -0.239002,0.334726 -0.239002,1.004178 0.000000,0.669452 l 4.635521,-6.492131 c 0.239002,-0.334726 0.239002,0.334726 0.000000,0.669452 l -4.635521,6.492131 c -0.239002,0.334726 -0.239002,1.004178 0.000000,0.669452 l 4.635521,-6.492131 c 0.239002,-0.334726 0.239002,0.334726 0.000000,0.669452 l -4.635521,6.492131 c -0.239002,0.334726 -0.239002,1.004178 0.000000,0.669452 l 4.635521,-6.492131 c 0.239002,-0.334726 0.239002,0.334726 0.000000,0.669452 l -4.635521,6.492131 c -0.239002,0.334726 -0.239002,1.004178 0.000000,0.669452 l 4.635521,-6.492131 c 0.239002,-0.334726 0.239002,0.334726 0.000000,0.669452 l -4.635521,6.492131 c -0.239002,0.334726 -0.239002,1.004178 0.000000,0.669452 l 4.635521,-6.492131 c 0.239002,-0.334726 0.239002,0.334726 0.000000,0.669452 l -4.635521,6.492131 c -0.239002,0.334726 0.027282,0.631243 0.266283,0.296518 l 4.369238,-6.119196 c 0.239002,-0.334726 0.239002,0.334726 0.000000,0.669452 l -3.891235,5.449745 c -0.239002,0.334726 0.239002,0.334726 0.478003,0.000000 l 3.413232,-4.780293 c 0.239002,-0.334726 0.239002,0.334726 0.000000,0.669452 l -2.935229,4.110841 c -0.239002,0.334726 0.239002,0.334726 0.478003,0.000000 l 2.457226,-3.441389 c 0.239002,-0.334726 0.239002,0.334726 0.000000,0.669452 l -1.979223,2.771937 c -0.239002,0.334726 0.239002,0.334726 0.478003,0.000000 l 1.501220,-2.102485 c 0.239002,-0.334726 0.239002,0.334726 0.000000,0.669452 l -1.023217,1.433034 c -0.239002,0.334726 0.239002,0.334726 0.478003,0.000000 l 0.545214,-0.763582 c 0.239002,-0.334726 0.239002,0.334726 0.000000,0.669452 l -0.246462,0.345174" />
                    </g>
                  </g>
                </g>
              </g>
              <g
                 id="g1310"
                 style="stroke-width:0.07344708;stroke-miterlimit:4;stroke-dasharray:none">
                <g
                   id="g1718">
                  <path
                     d="m 95.587441,155.05275 h 5.272389 v 22.91573 h -5.272389 z"
                     style="font-style:normal;font-variant:normal;font-weight:bold;font-stretch:normal;font-family:sans-serif;-inkscape-font-specification:'sans-serif Bold';stroke-width:0.07344708;fill:none;stroke:#000000;stroke-opacity:1;stroke-miterlimit:4;stroke-dasharray:none"
                     id="path1274" />
                  <path
                     id="path1716"
                     style="stroke:#000000;stroke-width:0.07344708;fill:none"
                     d="M 95.925440,156.052213 l 0.196388,-0.275045 c 0.239002,-0.334726 0.717005,-0.334726 0.478003,0.000000 l -0.495140,0.693452 c -0.239002,0.334726 -0.239002,1.004178 0.000000,0.669452 l 0.973143,-1.362904 c 0.239002,-0.334726 0.717005,-0.334726 0.478003,0.000000 l -1.451146,2.032356 c -0.239002,0.334726 -0.239002,1.004178 0.000000,0.669452 l 1.929149,-2.701808 c 0.239002,-0.334726 0.717005,-0.334726 0.478003,0.000000 l -2.407152,3.371260 c -0.239002,0.334726 -0.239002,1.004178 0.000000,0.669452 l 2.885155,-4.040711 c 0.239002,-0.334726 0.717005,-0.334726 0.478003,0.000000 l -3.363158,4.710163 c -0.239002,0.334726 -0.239002,1.004178 0.000000,0.669452 l 3.841161,-5.379615 c 0.239002,-0.334726 0.635729,-0.220898 0.396727,0.113828 l -4.237888,5.935238 c -0.239002,0.334726 -0.239002,1.004178 0.000000,0.669452 l 4.237888,-5.935238 c 0.239002,-0.334726 0.239002,0.334726 0.000000,0.669452 l -4.237888,5.935238 c -0.239002,0.334726 -0.239002,1.004178 0.000000,0.669452 l 4.237888,-5.935238 c 0.239002,-0.334726 0.239002,0.334726 0.000000,0.669452 l -4.237888,5.935238 c -0.239002,0.334726 -0.239002,1.004178 0.000000,0.669452 l 4.237888,-5.935238 c 0.239002,-0.334726 0.239002,0.334726 0.000000,0.669452 l -4.237888,5.935238 c -0.239002,0.334726 -0.239002,1.004178 0.000000,0.669452 l 4.237888,-5.935238 c 0.239002,-0.334726 0.239002,0.334726 0.000000,0.669452 l -4.237888,5.935238 c -0.239002,0.334726 -0.239002,1.004178 0.000000,0.669452 l 4.237888,-5.935238 c 0.239002,-0.334726 0.239002,0.334726 0.000000,0.669452 l -4.237888,5.935238 c -0.239002,0.334726 -0.239002,1.004178 0.000000,0.669452 l 4.237888,-5.935238 c 0.239002,-0.334726 0.239002,0.334726 0.000000,0.669452 l -4.237888,5.935238 c -0.239002,0.334726 -0.239002,1.004178 0.000000,0.669452 l 4.237888,-5.935238 c 0.239002,-0.334726 0.239002,0.334726 0.000000,0.669452 l -4.237888,5.935238 c -0.239002,0.334726 -0.239002,1.004178 0.000000,0.669452 l 4.237888,-5.935238 c 0.239002,-0.334726 0.239002,0.334726 0.000000,0.669452 l -4.237888,5.935238 c -0.239002,0.334726 -0.239002,1.004178 0.000000,0.669452 l 4.237888,-5.935238 c 0.239002,-0.334726 0.239002,0.334726 0.000000,0.669452 l -4.237888,5.935238 c -0.239002,0.334726 -0.239002,1.004178 0.000000,0.669452 l 4.237888,-5.935238 c 0.239002,-0.334726 0.239002,0.334726 0.000000,0.669452 l -4.237888,5.935238 c -0.239002,0.334726 -0.239002,1.004178 0.000000,0.669452 l 4.237888,-5.935238 c 0.239002,-0.334726 0.239002,0.334726 0.000000,0.669452 l -4.237888,5.935238 c -0.239002,0.334726 -0.239002,1.004178 0.000000,0.669452 l 4.237888,-5.935238 c 0.239002,-0.334726 0.239002,0.334726 0.000000,0.669452 l -3.774476,5.286221 c -0.239002,0.334726 0.239002,0.334726 0.478003,0.000000 l 3.296473,-4.616769 c 0.239002,-0.334726 0.239002,0.334726 0.000000,0.669452 l -2.818470,3.947318 c -0.239002,0.334726 0.239002,0.334726 0.478003,0.000000 l 2.340467,-3.277866 c 0.239002,-0.334726 0.239002,0.334726 0.000000,0.669452 l -1.862464,2.608414 c -0.239002,0.334726 0.239002,0.334726 0.478003,0.000000 l 1.384461,-1.938962 c 0.239002,-0.334726 0.239002,0.334726 0.000000,0.669452 l -0.906458,1.269510 c -0.239002,0.334726 0.239002,0.334726 0.478003,0.000000 l 0.453229,-0.634755 c 0.205969,-0.288464 0.205969,0.380988 0.000000,0.669452 l -0.154477,0.216348" />
                </g>
              </g>
            </g>
          </g>
        </g>
      </g>
    </g>
  </g>
  <eggbot
     layer="0"
     node="0"
     lastpath="0"
     lastpathnc="0"
     totaldeltax="0"
     totaldeltay="0" />
</svg>
