<?xml version="1.0" encoding="UTF-8" standalone="no"?>
<!-- Created with Inkscape (http://www.inkscape.org/) -->

<svg
   xmlns:dc="http://purl.org/dc/elements/1.1/"
   xmlns:cc="http://creativecommons.org/ns#"
   xmlns:rdf="http://www.w3.org/1999/02/22-rdf-syntax-ns#"
   xmlns:svg="http://www.w3.org/2000/svg"
   xmlns="http://www.w3.org/2000/svg"
   xmlns:sodipodi="http://sodipodi.sourceforge.net/DTD/sodipodi-0.dtd"
   xmlns:inkscape="http://www.inkscape.org/namespaces/inkscape"
   sodipodi:docname="fischer.svg"
   inkscape:version="0.92.4 (5da689c313, 2019-01-14)"
   version="1.1"
   id="svg2"
   height="800"
   width="3200">
  <defs
     id="defs4" />
  <sodipodi:namedview
     id="base"
     pagecolor="#ffffff"
     bordercolor="#666666"
     borderopacity="1.0"
     inkscape:pageopacity="0.0"
     inkscape:pageshadow="2"
     inkscape:zoom="0.3535534"
     inkscape:cx="2071.5761"
     inkscape:cy="15.245612"
     inkscape:document-units="px"
     inkscape:current-layer="g889"
     showgrid="false"
     inkscape:window-width="1272"
     inkscape:window-height="961"
     inkscape:window-x="111"
     inkscape:window-y="55"
     inkscape:window-maximized="0" />
  <metadata
     id="metadata7">
    <rdf:RDF>
      <cc:Work
         rdf:about="">
        <dc:format>image/svg+xml</dc:format>
        <dc:type
           rdf:resource="http://purl.org/dc/dcmitype/StillImage" />
        <dc:title />
      </cc:Work>
    </rdf:RDF>
  </metadata>
  <g
     inkscape:label="1-default"
     inkscape:groupmode="layer"
     id="layer1"
     transform="translate(0,-252.36218)"
     style="display:inline">
    <g
       id="layer1-6"
       inkscape:label="Layer 1"
       transform="matrix(3.7795276,0,0,3.7795276,612.01299,-1353.4129)">
      <g
         transform="matrix(1.1995983,0,0,1.1995983,-16.037494,-57.67309)"
         id="g952">
        <g
           transform="matrix(9.5390044,0,0,9.5390044,-728.59894,-4444.9815)"
           id="g889">
          <path
             id="path869"
             d="m 92.676612,517.28897 c -0.0231,6e-5 -0.0467,5.6e-4 -0.0707,0.002 l 3e-5,7e-5 c -0.19224,0.009 -0.41348,0.0639 -0.62792,0.2229 a 0.19984951,0.19984951 0 0 0 -0.0204,0.0174 c -0.444278,0.43291 -0.757731,0.82544 -1.006989,1.20251 l -0.840377,0.004 a 0.2003366,0.2003366 0 1 0 0.0016,0.40067 l 0.592006,-0.003 c -0.170281,0.2971 -0.314411,0.59 -0.46676,0.89161 l -0.123832,0.0889 a 0.20036406,0.20036406 0 1 0 0.23456,0.32489 l 0.158798,-0.1151 a 0.19984951,0.19984951 0 0 0 0.06265,-0.0728 c 0.199592,-0.39401 0.373948,-0.75392 0.600192,-1.11978 l 1.793542,-0.009 c -0.0646,0.12051 -0.13398,0.11849 -0.21418,0.88434 a 0.19984951,0.19984951 0 0 0 0.20397,0.22001 l 0.48081,-0.0146 a 0.19984951,0.19984951 0 0 0 0.0903,-0.0248 l 2.36749,-1.30686 c 0.16848,0.28193 0.18797,0.35578 0.18648,0.63667 -4.9e-4,0.0945 -0.051,0.21099 -0.13114,0.2885 -0.0802,0.0775 -0.17553,0.11706 -0.2899,0.0976 a 0.19984951,0.19984951 0 0 0 -0.0335,-0.003 h -0.59588 a 0.19984951,0.19984951 0 1 0 0,0.39918 h 0.58425 c -0.007,-9.7e-4 -0.0146,-0.002 -0.0219,-0.003 l 0.0335,0.003 h -0.0116 c 0.23996,0.0333 0.46196,-0.0607 0.6133,-0.20697 0.15594,-0.15077 0.25089,-0.35645 0.25204,-0.57401 0.001,-0.25775 -0.0753,-0.47349 -0.21856,-0.75176 l 0.14718,-0.18793 a 0.19984951,0.19984951 0 0 0 -0.17194,-0.32197 l -3e-5,-4e-5 a 0.19984951,0.19984951 0 0 0 -0.0816,0.0248 l -2.77978,1.53268 -0.17045,0.006 c 0.0672,-0.42404 0.12077,-0.58696 0.20397,-0.83628 a 0.19984951,0.19984951 0 0 0 -0.18942,-0.26225 l -1.777135,0.009 c 0.206053,-0.28234 0.457095,-0.57616 0.786445,-0.89866 0.14569,-0.10547 0.26239,-0.13535 0.39774,-0.14132 0.1383,-0.006 0.29633,0.0191 0.48222,0.019 a 0.2003267,0.2003267 0 1 0 -0.002,-0.40064 c -0.1249,1.2e-4 -0.26553,-0.021 -0.42752,-0.0206 z"
             style="color:#000000;font-style:normal;font-variant:normal;font-weight:normal;font-stretch:normal;font-size:medium;line-height:normal;font-family:sans-serif;font-variant-ligatures:normal;font-variant-position:normal;font-variant-caps:normal;font-variant-numeric:normal;font-variant-alternates:normal;font-feature-settings:normal;text-indent:0;text-align:start;text-decoration:none;text-decoration-line:none;text-decoration-style:solid;text-decoration-color:#000000;letter-spacing:normal;word-spacing:normal;text-transform:none;writing-mode:lr-tb;direction:ltr;text-orientation:mixed;dominant-baseline:auto;baseline-shift:baseline;text-anchor:start;white-space:normal;shape-padding:0;clip-rule:nonzero;display:inline;overflow:visible;visibility:visible;opacity:1;isolation:auto;mix-blend-mode:normal;color-interpolation:sRGB;color-interpolation-filters:linearRGB;solid-color:#000000;solid-opacity:1;vector-effect:none;fill:none;fill-opacity:1;fill-rule:evenodd;stroke:#071108;stroke-width:0.04693746;stroke-linecap:round;stroke-linejoin:round;stroke-miterlimit:4;stroke-dasharray:none;stroke-dashoffset:0;stroke-opacity:1;color-rendering:auto;image-rendering:auto;shape-rendering:auto;text-rendering:auto;enable-background:accumulate"
             inkscape:connector-curvature="0" />
          <path
             sodipodi:nodetypes="cccccccccccccccccccccccccccccsccccccccccccccccccccccccccccccccccccccccccc"
             inkscape:connector-curvature="0"
             id="path873"
             d="m 100.79373,517.2688 c -0.0577,0.002 -0.11193,0.0283 -0.1486,0.0728 -0.64232,0.78211 -0.949768,1.52419 -2.058608,2.20285 -0.1541,0.0943 -0.38868,0.21345 -0.60753,0.29575 -0.21885,0.0823 -0.44099,0.11019 -0.46913,0.10345 -0.0674,-0.0162 -0.16167,-0.0498 -0.21416,-0.10054 -0.0525,-0.0508 -0.0934,-0.10682 -0.0525,-0.29575 0,-4.9e-4 0,-7.5e-4 0,-0.002 0.0195,-0.0917 0.13319,-0.25429 0.43561,-0.45311 0.22958,-0.14227 0.24525,-0.12288 0.49244,-0.10489 0.26635,0.0196 0.29549,-0.37951 0.0291,-0.3992 -0.25038,-0.0182 -0.45543,-0.009 -0.73429,0.16463 -0.002,7.5e-4 -0.003,0.002 -0.004,0.003 -0.34905,0.22813 -0.5539,0.44768 -0.60898,0.70661 -0.0627,0.28909 0.025,0.53077 0.16608,0.66726 0.14107,0.13649 0.30692,0.17926 0.39774,0.20105 0.2315,0.0555 0.45535,-0.0251 0.70223,-0.118 0.24688,-0.0929 0.49644,-0.21703 0.67747,-0.32782 0.40639,-0.24872 0.63092,-0.51544 0.88725,-0.77944 -0.16778,0.30671 -0.36445,0.54043 -0.49681,0.91348 -0.0659,0.18597 0.14893,0.34479 0.30741,0.22728 0.40055,-0.29608 0.837478,-0.63614 1.193208,-0.88434 0.17787,-0.1241 0.3362,-0.22466 0.45019,-0.28264 0.0163,-0.009 0.0221,-0.008 0.0364,-0.0146 0.0962,0.2306 0.16242,0.57103 0.20396,1.07083 0.0104,0.12394 0.1304,0.20832 0.25059,0.1763 0.529,-0.14088 0.9582,-0.3581 1.43069,-0.5347 0.11708,0.20858 0.2335,0.40911 0.41813,0.50701 0.005,0.003 0.01,0.005 0.0146,0.008 0.2137,0.0918 0.44481,0.0514 0.6964,-0.0248 0.2516,-0.0762 0.52786,-0.20231 0.80859,-0.35112 0.37171,-0.19703 0.68488,-0.42109 1.01109,-0.64103 l -0.33362,0.88579 c -0.0778,0.20844 0.19195,0.36888 0.33799,0.20106 0.19677,-0.22809 0.38457,-0.50918 0.56529,-0.74448 0.18071,-0.2353 0.36694,-0.41373 0.45892,-0.44872 0.009,-0.003 0.0168,-0.008 0.0248,-0.0117 0.35854,-0.19446 0.66289,-0.15151 0.66289,-0.15151 0.2642,0.036 0.31812,-0.36034 0.054,-0.39629 0,0 -0.43242,-0.0453 -0.89162,0.19376 -0.16914,0.0674 -0.28875,0.23225 -0.41667,0.38026 l 0.12383,-0.32779 c 0.0713,-0.1868 -0.14551,-0.35095 -0.30596,-0.23166 -0.37358,0.27226 -0.94503,0.65681 -1.47875,0.9397 -0.26687,0.14145 -0.52439,0.25649 -0.73575,0.32052 -0.20767,0.063 -0.36176,0.0607 -0.41667,0.0393 -0.14003,-0.0739 -0.17584,-0.18778 -0.23165,-0.28119 0.24309,-0.10427 0.54105,-0.15353 0.76342,-0.28556 0.32852,-0.19504 0.50157,-0.39345 0.53469,-0.61627 0.0331,-0.22282 -0.10378,-0.40358 -0.24622,-0.48515 -0.1732,-0.0992 -0.3643,-0.0852 -0.54488,-0.0422 -0.18059,0.043 -0.35807,0.12446 -0.50847,0.22436 -0.25941,0.17263 -0.41388,0.39862 -0.48952,0.61045 -0.0484,0.13555 -0.0209,0.24438 -0.0131,0.35985 -0.39209,0.14757 -0.74809,0.32193 -1.19612,0.44436 -0.0404,-0.42997 -0.0703,-0.83672 -0.22728,-1.11453 -0.0179,-0.0317 -0.0441,-0.0579 -0.0758,-0.0757 -0.0975,-0.055 -0.18409,-0.0395 -0.25496,-0.0219 -0.0709,0.0176 -0.1369,0.046 -0.2098,0.083 -0.1458,0.0741 -0.31321,0.18267 -0.49826,0.31178 -0.14758,0.10297 -0.31727,0.23455 -0.479318,0.35548 0.321468,-0.61072 0.652558,-1.19852 0.996518,-1.8255 0.0744,-0.13585 -0.0273,-0.30106 -0.18211,-0.29576 z m 3.22997,1.33307 c 0.12563,-0.0299 0.22661,-0.0162 0.25496,0 0.0367,0.0209 0.0554,0.0388 0.0495,0.0787 -0.006,0.0399 -0.0678,0.16828 -0.34384,0.33218 -0.19083,0.11329 -0.47067,0.1606 -0.68328,0.2535 0.005,-0.037 -0.006,-0.0417 0.009,-0.083 0.0486,-0.13629 0.1482,-0.28942 0.33508,-0.41377 0.11005,-0.0731 0.25315,-0.13766 0.3788,-0.16754 z"
             style="color:#000000;font-style:normal;font-variant:normal;font-weight:normal;font-stretch:normal;font-size:medium;line-height:normal;font-family:sans-serif;font-variant-ligatures:normal;font-variant-position:normal;font-variant-caps:normal;font-variant-numeric:normal;font-variant-alternates:normal;font-feature-settings:normal;text-indent:0;text-align:start;text-decoration:none;text-decoration-line:none;text-decoration-style:solid;text-decoration-color:#000000;letter-spacing:normal;word-spacing:normal;text-transform:none;writing-mode:lr-tb;direction:ltr;text-orientation:mixed;dominant-baseline:auto;baseline-shift:baseline;text-anchor:start;white-space:normal;shape-padding:0;clip-rule:nonzero;display:inline;overflow:visible;visibility:visible;opacity:1;isolation:auto;mix-blend-mode:normal;color-interpolation:sRGB;color-interpolation-filters:linearRGB;solid-color:#000000;solid-opacity:1;vector-effect:none;fill:none;fill-opacity:1;fill-rule:evenodd;stroke:#071108;stroke-width:0.04693746;stroke-linecap:round;stroke-linejoin:round;stroke-miterlimit:4;stroke-dasharray:none;stroke-dashoffset:0;stroke-opacity:1;color-rendering:auto;image-rendering:auto;shape-rendering:auto;text-rendering:auto;enable-background:accumulate" />
          <g
             style="stroke-width:0.0629241;stroke-miterlimit:4;stroke-dasharray:none;stroke:#071108;stroke-opacity:1"
             id="g941"
             transform="matrix(0.74593782,0,0,0.74593782,24.008764,133.2638)">
            <g
               id="g969"
               style="stroke-width:0.0629241;stroke-miterlimit:4;stroke-dasharray:none;stroke:#071108;stroke-opacity:1">
              <g
                 id="g1013"
                 style="stroke-width:0.0629241;stroke-miterlimit:4;stroke-dasharray:none;stroke:#071108;stroke-opacity:1">
                <g
                   id="g1038"
                   style="stroke-width:0.0629241;stroke-miterlimit:4;stroke-dasharray:none;stroke:#071108;stroke-opacity:1">
                  <g
                     id="g1131"
                     style="stroke-width:0.0629241;stroke-miterlimit:4;stroke-dasharray:none;stroke:#071108;stroke-opacity:1">
                    <g
                       id="g842"
                       style="stroke-width:0.0629241;stroke-miterlimit:4;stroke-dasharray:none;stroke:#071108;stroke-opacity:1">
                      <g
                         style="stroke-width:0.0629241;stroke-miterlimit:4;stroke-dasharray:none;stroke:#071108;stroke-opacity:1"
                         id="g925">
                        <g
                           id="g923">
                          <path
                             style="opacity:1;fill:none;fill-opacity:1;stroke:#071108;stroke-width:0.0629241;stroke-linecap:round;stroke-linejoin:round;stroke-miterlimit:4;stroke-dasharray:none;stroke-dashoffset:0;stroke-opacity:1;paint-order:markers fill stroke"
                             d="m 79.14043,508.14343 v 18.48741 h 45.13337 v -18.48741 z m 21.56749,2.83928 c 5.00583,-0.0782 10.11457,1.53837 15.32892,4.74204 2.20372,-1.42468 3.8897,-2.91409 5.51399,-4.4112 l 0.11028,3.80466 c -0.87209,0.65056 -1.49248,1.27044 -3.0327,2.26074 2.18443,1.56888 3.01524,2.30814 2.92242,2.4813 v 3.5841 c -1.5719,-1.36252 -2.93993,-2.67408 -5.34857,-4.24578 -9.23895,5.09431 -12.35811,4.86871 -16.32144,4.9626 -6.033684,0.14293 -12.112471,-1.96902 -18.251335,-6.50652 4.446153,-3.26761 9.035893,-6.51505 19.078435,-6.67194 z"
                             id="rect862"
                             inkscape:connector-curvature="0" />
                          <path
                             id="path921"
                             style="stroke:#071108;stroke-width:0.0629241;fill:none"
                             d="M 79.676668,509.479992 l 0.515941,-0.515941 c 0.379177,-0.379177 1.137532,-0.379177 0.758355,0.000000 l -0.989913,0.989913 c -0.379177,0.379177 -0.379177,1.137532 0.000000,0.758355 l 1.748268,-1.748268 c 0.379177,-0.379177 1.137532,-0.379177 0.758355,0.000000 l -2.506622,2.506622 c -0.379177,0.379177 -0.379177,1.137532 0.000000,0.758355 l 3.264977,-3.264977 c 0.379177,-0.379177 1.137532,-0.379177 0.758355,0.000000 l -4.023332,4.023332 c -0.379177,0.379177 -0.379177,1.137532 0.000000,0.758355 l 4.781686,-4.781686 c 0.379177,-0.379177 1.137532,-0.379177 0.758355,0.000000 l -5.540041,5.540041 c -0.379177,0.379177 -0.379177,1.137532 0.000000,0.758355 l 6.298396,-6.298396 c 0.379177,-0.379177 1.137532,-0.379177 0.758355,0.000000 l -7.056750,7.056750 c -0.379177,0.379177 -0.379177,1.137532 0.000000,0.758355 l 7.815105,-7.815105 c 0.379177,-0.379177 1.137532,-0.379177 0.758355,0.000000 l -8.573460,8.573460 c -0.379177,0.379177 -0.379177,1.137532 0.000000,0.758355 l 9.331814,-9.331814 c 0.379177,-0.379177 1.137532,-0.379177 0.758355,0.000000 l -10.090169,10.090169 c -0.379177,0.379177 -0.379177,1.137532 0.000000,0.758355 l 1.288096,-1.288096 c 0.379177,-0.379177 0.827713,-0.069358 0.448535,0.309819 l -1.736632,1.736632 c -0.379177,0.379177 -0.379177,1.137532 0.000000,0.758355 l 2.185167,-2.185167 c 0.379177,-0.379177 0.827713,-0.069358 0.448535,0.309819 l -2.633702,2.633702 c -0.379177,0.379177 -0.379177,1.137532 0.000000,0.758355 l 3.082238,-3.082238 c 0.379177,-0.379177 0.836023,-0.077668 0.456845,0.301509 l -3.539083,3.539083 c -0.379177,0.379177 -0.379177,1.137532 0.000000,0.758355 l 4.014804,-4.014804 c 0.379177,-0.379177 0.854898,-0.096544 0.475721,0.282634 l -4.490525,4.490525 c -0.379177,0.379177 -0.309985,1.068339 0.069193,0.689162 l 4.897053,-4.897053 c 0.379177,-0.379177 0.854898,-0.096544 0.475721,0.282634 l -4.614420,4.614420 c -0.379177,0.379177 0.379177,0.379177 0.758355,0.000000 l 4.344464,-4.344464 c 0.379177,-0.379177 0.885465,-0.127110 0.506288,0.252067 l -4.092397,4.092397 c -0.379177,0.379177 0.379177,0.379177 0.758355,0.000000 l 3.840330,-3.840330 c 0.379177,-0.379177 0.885465,-0.127110 0.506288,0.252067 l -3.588263,3.588263 c -0.379177,0.379177 0.379177,0.379177 0.758355,0.000000 l 3.330020,-3.330020 c 0.379177,-0.379177 0.920075,-0.161720 0.540898,0.217457 l -3.112563,3.112563 c -0.379177,0.379177 0.379177,0.379177 0.758355,0.000000 l 2.895106,-2.895106 c 0.379177,-0.379177 0.920075,-0.161720 0.540898,0.217457 l -2.677649,2.677649 c -0.379177,0.379177 0.379177,0.379177 0.758355,0.000000 l 2.460192,-2.460192 c 0.379177,-0.379177 0.940785,-0.182431 0.561608,0.196747 l -2.263445,2.263445 c -0.379177,0.379177 0.379177,0.379177 0.758355,0.000000 l 2.085489,-2.085489 c 0.379177,-0.379177 0.959576,-0.201221 0.580398,0.177957 l -1.907532,1.907532 c -0.379177,0.379177 0.379177,0.379177 0.758355,0.000000 l 1.767517,-1.767517 c 0.379177,-0.379177 0.945371,-0.187016 0.566193,0.192161 l -1.575356,1.575356 c -0.379177,0.379177 0.379177,0.379177 0.758355,0.000000 l 1.442891,-1.442891 c 0.379177,-0.379177 1.005068,-0.246713 0.625890,0.132465 l -1.310427,1.310427 c -0.379177,0.379177 0.379177,0.379177 0.758355,0.000000 l 1.168066,-1.168066 c 0.379177,-0.379177 1.058009,-0.299654 0.678832,0.079523 l -1.088543,1.088543 c -0.379177,0.379177 0.379177,0.379177 0.758355,0.000000 l 1.009020,-1.009020 c 0.379177,-0.379177 1.137071,-0.378717 0.757894,0.000461 l -1.008559,1.008559 c -0.379177,0.379177 0.379177,0.379177 0.758355,0.000000 l 0.874764,-0.874764 c 0.379177,-0.379177 1.120373,-0.362018 0.741195,0.017160 l -0.857604,0.857604 c -0.379177,0.379177 0.379177,0.379177 0.758355,0.000000 l 0.840445,-0.840445 c 0.379177,-0.379177 1.132921,-0.374566 0.753744,0.004611 l -0.835834,0.835834 c -0.379177,0.379177 0.379177,0.379177 0.758355,0.000000 l 0.862316,-0.862316 c 0.379177,-0.379177 1.164014,-0.405659 0.784837,-0.026482 l -0.888798,0.888798 c -0.379177,0.379177 0.379177,0.379177 0.758355,0.000000 l 0.943549,-0.943549 c 0.379177,-0.379177 1.170400,-0.412045 0.791223,-0.032868 l -0.976417,0.976417 c -0.379177,0.379177 0.379177,0.379177 0.758355,0.000000 l 1.037381,-1.037381 c 0.379177,-0.379177 1.323955,-0.565600 0.944777,-0.186422 l -1.223803,1.223803 c -0.379177,0.379177 0.379177,0.379177 0.758355,0.000000 l 1.383701,-1.383701 c 0.379177,-0.379177 1.450333,-0.691978 1.071155,-0.312801 l -1.696501,1.696501 c -0.379177,0.379177 0.379177,0.379177 0.758355,0.000000 l 1.996889,-1.996889 c 0.379177,-0.379177 1.604989,-0.846634 1.225811,-0.467457 l -2.464346,2.464346 c -0.379177,0.379177 0.379177,0.379177 0.758355,0.000000 l 3.220194,-3.220194 M 85.202266,514.571359 l 5.607309,-5.607309 c 0.379177,-0.379177 1.137532,-0.379177 0.758355,0.000000 l -4.235445,4.235445 c -0.379177,0.379177 0.998445,-0.240090 1.377622,-0.619267 l 3.616178,-3.616178 c 0.379177,-0.379177 1.137532,-0.379177 0.758355,0.000000 l -3.422809,3.422809 c -0.379177,0.379177 0.791609,-0.033254 1.170786,-0.412432 l 3.010377,-3.010377 c 0.379177,-0.379177 1.137532,-0.379177 0.758355,0.000000 l -2.570771,2.570771 c -0.379177,0.379177 0.854785,-0.096431 1.233963,-0.475608 l 2.095163,-2.095163 c 0.379177,-0.379177 1.137532,-0.379177 0.758355,0.000000 l -1.867289,1.867289 c -0.379177,0.379177 0.539517,0.218838 0.918694,-0.160340 l 1.706950,-1.706950 c 0.379177,-0.379177 1.137532,-0.379177 0.758355,0.000000 l -1.549404,1.549404 c -0.379177,0.379177 0.470624,0.287730 0.849802,-0.091447 l 1.457957,-1.457957 c 0.379177,-0.379177 1.137532,-0.379177 0.758355,0.000000 l -1.383417,1.383417 c -0.379177,0.379177 0.456956,0.301398 0.836134,-0.077779 l 1.305638,-1.305638 c 0.379177,-0.379177 1.137532,-0.379177 0.758355,0.000000 l -1.241380,1.241380 c -0.379177,0.379177 0.394641,0.363713 0.773819,-0.015464 l 1.225916,-1.225916 c 0.379177,-0.379177 1.137532,-0.379177 0.758355,0.000000 l -1.197887,1.197887 c -0.379177,0.379177 0.359759,0.398595 0.738937,0.019418 l 1.217305,-1.217305 c 0.379177,-0.379177 1.137532,-0.379177 0.758355,0.000000 l -1.236895,1.236895 c -0.379177,0.379177 0.353008,0.405347 0.732185,0.026169 l 1.263065,-1.263065 c 0.379177,-0.379177 1.137532,-0.379177 0.758355,0.000000 l -1.353402,1.353402 c -0.379177,0.379177 0.304206,0.454149 0.683384,0.074971 l 1.428373,-1.428373 c 0.379177,-0.379177 1.137532,-0.379177 0.758355,0.000000 l -1.595738,1.595738 c -0.379177,0.379177 0.323295,0.435059 0.702473,0.055882 l 1.651620,-1.651620 c 0.379177,-0.379177 1.137532,-0.379177 0.758355,0.000000 l -1.773440,1.773440 c -0.379177,0.379177 0.186086,0.572269 0.565263,0.193092 l 1.966531,-1.966531 c 0.379177,-0.379177 1.137532,-0.379177 0.758355,0.000000 l -2.077809,2.077809 c -0.379177,0.379177 0.217220,0.541135 0.596397,0.161957 l 2.239767,-2.239767 c 0.379177,-0.379177 1.137532,-0.379177 0.758355,0.000000 l -2.401724,2.401724 c -0.379177,0.379177 0.173962,0.584393 0.553139,0.205216 l 2.606940,-2.606940 c 0.379177,-0.379177 1.137532,-0.379177 0.758355,0.000000 l -2.803659,2.803659 c -0.379177,0.379177 0.182457,0.575897 0.561635,0.196720 l 3.000379,-3.000379 c 0.379177,-0.379177 1.137532,-0.379177 0.758355,0.000000 l -3.220245,3.220245 c -0.379177,0.379177 0.152066,0.606289 0.531243,0.227111 l 3.447356,-3.447356 c 0.379177,-0.379177 1.137532,-0.379177 0.758355,0.000000 l -3.674468,3.674468 c -0.379177,0.379177 0.152066,0.606289 0.531243,0.227111 l 3.901579,-3.901579 c 0.379177,-0.379177 1.137532,-0.379177 0.758355,0.000000 l -4.157278,4.157278 c -0.379177,0.379177 0.125277,0.633077 0.504455,0.253900 l 4.411178,-4.411178 c 0.379177,-0.379177 1.137532,-0.379177 0.758355,0.000000 l -4.665078,4.665078 c -0.379177,0.379177 0.125277,0.633077 0.504455,0.253900 l 4.918978,-4.918978 c 0.379177,-0.379177 1.137532,-0.379177 0.758355,0.000000 l -5.200548,5.200548 c -0.379177,0.379177 0.101493,0.656862 0.480670,0.277684 l 5.478232,-5.478232 c 0.379177,-0.379177 1.137532,-0.379177 0.758355,0.000000 l -5.755917,5.755917 c -0.379177,0.379177 0.101493,0.656862 0.480670,0.277684 l 6.033601,-6.033601 c 0.379177,-0.379177 1.137532,-0.379177 0.758355,0.000000 l -4.110389,4.110389 M 123.737562,509.403669 l -1.373199,1.373199 c -0.379177,0.379177 -0.357815,1.116170 0.021362,0.736993 l 1.067454,-1.067454 c 0.379177,-0.379177 0.379177,0.379177 0.000000,0.758355 l -1.046092,1.046092 c -0.379177,0.379177 -0.357815,1.116170 0.021362,0.736993 l 1.024730,-1.024730 c 0.379177,-0.379177 0.379177,0.379177 0.000000,0.758355 l -1.287751,1.287751 M 107.804983,526.094602 l 4.550038,-4.550038 c 0.379177,-0.379177 1.110012,-0.351658 0.730835,0.027520 l -4.238135,4.238135 c -0.379177,0.379177 0.379177,0.379177 0.758355,0.000000 l 5.935695,-5.935695 c 0.379177,-0.379177 0.826350,-0.067996 0.447173,0.311182 l -5.624513,5.624513 c -0.379177,0.379177 0.379177,0.379177 0.758355,0.000000 l 5.313331,-5.313331 c 0.379177,-0.379177 0.826350,-0.067996 0.447173,0.311182 l -5.002149,5.002149 c -0.379177,0.379177 0.379177,0.379177 0.758355,0.000000 l 4.685892,-4.685892 c 0.379177,-0.379177 0.803845,-0.045491 0.424668,0.333687 l -4.352206,4.352206 c -0.379177,0.379177 0.379177,0.379177 0.758355,0.000000 l 4.018519,-4.018519 c 0.379177,-0.379177 0.802345,-0.043991 0.423168,0.335187 l -3.683332,3.683332 c -0.379177,0.379177 0.379177,0.379177 0.758355,0.000000 l 3.331361,-3.331361 c 0.379177,-0.379177 0.785561,-0.027206 0.406384,0.351971 l -2.979390,2.979390 c -0.379177,0.379177 0.379177,0.379177 0.758355,0.000000 l 2.627419,-2.627419 c 0.379177,-0.379177 0.785561,-0.027206 0.406384,0.351971 l -2.275448,2.275448 c -0.379177,0.379177 0.379177,0.379177 0.758355,0.000000 l 2.207861,-2.207861 M 123.737562,513.195442 l -3.916794,3.916794 c -0.379177,0.379177 0.051230,0.707125 0.430407,0.327948 l 3.202004,-3.202004 c 0.379177,-0.379177 0.379177,0.379177 0.000000,0.758355 l -2.771597,2.771597 c -0.379177,0.379177 0.051230,0.707125 0.430407,0.327948 l 2.341190,-2.341190 c 0.379177,-0.379177 0.379177,0.379177 0.000000,0.758355 l -1.910783,1.910783 c -0.379177,0.379177 0.011248,0.747107 0.390425,0.367929 l 1.520357,-1.520357 c 0.379177,-0.379177 0.379177,0.379177 0.000000,0.758355 l -1.187840,1.187840 c -0.379177,0.379177 -0.273066,1.031420 0.106112,0.652243 l 1.081729,-1.081729 c 0.379177,-0.379177 0.379177,0.379177 -0.000000,0.758355 l -1.081729,1.081729 c -0.379177,0.379177 -0.379177,1.137532 0.000000,0.758355 l 1.081729,-1.081729 c 0.379177,-0.379177 0.379177,0.379177 0.000000,0.758355 l -1.366112,1.366112 M 119.180304,526.094602 l 4.272876,-4.272876 c 0.379177,-0.379177 0.379177,0.379177 0.000000,0.758355 l -3.230138,3.230138 c -0.379177,0.379177 0.379177,0.379177 0.758355,0.000000 l 2.471783,-2.471783 c 0.379177,-0.379177 0.379177,0.379177 0.000000,0.758355 l -1.713429,1.713429 c -0.379177,0.379177 0.379177,0.379177 0.758355,0.000000 l 0.955074,-0.955074 c 0.379177,-0.379177 0.379177,0.379177 0.000000,0.758355 l -0.481102,0.481102 M 80.476992,526.094602 l -0.515941,-0.515941 c -0.379177,-0.379177 -0.379177,-1.137532 0.000000,-0.758355 l 0.989913,0.989913 c 0.379177,0.379177 1.137532,0.379177 0.758355,0.000000 l -1.748268,-1.748268 c -0.379177,-0.379177 -0.379177,-1.137532 0.000000,-0.758355 l 2.506622,2.506622 c 0.379177,0.379177 1.137532,0.379177 0.758355,0.000000 l -3.264977,-3.264977 c -0.379177,-0.379177 -0.379177,-1.137532 0.000000,-0.758355 l 4.023332,4.023332 c 0.379177,0.379177 1.137532,0.379177 0.758355,0.000000 l -4.781686,-4.781686 c -0.379177,-0.379177 -0.379177,-1.137532 0.000000,-0.758355 l 5.540041,5.540041 c 0.379177,0.379177 1.137532,0.379177 0.758355,0.000000 l -6.298396,-6.298396 c -0.379177,-0.379177 -0.379177,-1.137532 0.000000,-0.758355 l 7.056750,7.056750 c 0.379177,0.379177 1.137532,0.379177 0.758355,0.000000 l -7.815105,-7.815105 c -0.379177,-0.379177 -0.379177,-1.137532 0.000000,-0.758355 l 8.573460,8.573460 c 0.379177,0.379177 1.137532,0.379177 0.758355,0.000000 l -9.331814,-9.331814 c -0.379177,-0.379177 -0.379177,-1.137532 0.000000,-0.758355 l 1.154466,1.154466 c 0.379177,0.379177 0.819225,0.060870 0.440048,-0.318307 l -1.594514,-1.594514 c -0.379177,-0.379177 -0.379177,-1.137532 0.000000,-0.758355 l 2.034561,2.034561 c 0.379177,0.379177 0.819225,0.060870 0.440048,-0.318307 l -2.474609,-2.474609 c -0.379177,-0.379177 -0.379177,-1.137532 0.000000,-0.758355 l 2.919468,2.919468 c 0.379177,0.379177 0.833084,0.074729 0.453907,-0.304448 l -3.373375,-3.373375 c -0.379177,-0.379177 -0.379177,-1.137532 0.000000,-0.758355 l 3.827282,3.827282 c 0.379177,0.379177 0.833084,0.074729 0.453907,-0.304448 l -4.281188,-4.281188 c -0.379177,-0.379177 -0.379177,-1.137532 0.000000,-0.758355 l 4.745682,4.745682 c 0.379177,0.379177 0.858213,0.099858 0.479036,-0.279319 l -5.155525,-5.155525 c -0.379177,-0.379177 0.379177,-0.379177 0.758355,0.000000 l 4.876206,4.876206 c 0.379177,0.379177 0.858213,0.099858 0.479036,-0.279319 l -4.596887,-4.596887 c -0.379177,-0.379177 0.379177,-0.379177 0.758355,0.000000 l 4.331171,4.331171 c 0.379177,0.379177 0.893273,0.134919 0.514096,-0.244259 l -4.086913,-4.086913 c -0.379177,-0.379177 0.379177,-0.379177 0.758355,0.000000 l 3.842654,3.842654 c 0.379177,0.379177 0.893273,0.134919 0.514096,-0.244259 l -3.598395,-3.598395 c -0.379177,-0.379177 0.379177,-0.379177 0.758355,0.000000 l 3.361481,3.361481 c 0.379177,0.379177 0.924751,0.166396 0.545573,-0.212781 l -3.148699,-3.148699 c -0.379177,-0.379177 0.379177,-0.379177 0.758355,0.000000 l 2.937821,2.937821 c 0.379177,0.379177 0.948150,0.189795 0.568972,-0.189382 l -2.748438,-2.748438 c -0.379177,-0.379177 0.379177,-0.379177 0.758355,0.000000 l 2.556497,2.556497 c 0.379177,0.379177 0.973020,0.214665 0.593842,-0.164512 l -2.391984,-2.391984 c -0.379177,-0.379177 0.379177,-0.379177 0.758355,0.000000 l 2.218781,2.218781 c 0.379177,0.379177 0.999124,0.240769 0.619946,-0.138408 l -2.080372,-2.080372 c -0.379177,-0.379177 0.379177,-0.379177 0.758355,0.000000 l 1.941964,1.941964 c 0.379177,0.379177 1.009632,0.251278 0.630455,-0.127900 l -1.814064,-1.814064 c -0.379177,-0.379177 0.379177,-0.379177 0.758355,0.000000 l 1.702763,1.702763 c 0.379177,0.379177 1.027772,0.269418 0.648595,-0.109760 l -1.593004,-1.593004 c -0.379177,-0.379177 0.379177,-0.379177 0.758355,0.000000 l 1.509593,1.509593 c 0.379177,0.379177 1.044611,0.286256 0.665433,-0.092921 l -1.416671,-1.416671 c -0.379177,-0.379177 0.379177,-0.379177 0.758355,0.000000 l 1.361725,1.361725 c 0.379177,0.379177 1.082586,0.324231 0.703408,-0.054946 l -1.306779,-1.306779 c -0.379177,-0.379177 0.379177,-0.379177 0.758355,0.000000 l 1.258046,1.258046 c 0.379177,0.379177 1.111432,0.353077 0.732254,-0.026100 l -1.231946,-1.231946 c -0.379177,-0.379177 0.379177,-0.379177 0.758355,0.000000 l 1.191406,1.191406 c 0.379177,0.379177 1.158190,0.399835 0.779012,0.020658 l -1.212063,-1.212063 c -0.379177,-0.379177 0.379177,-0.379177 0.758355,0.000000 l 1.232721,1.232721 c 0.379177,0.379177 1.174597,0.416242 0.795420,0.037065 l -1.269786,-1.269786 c -0.379177,-0.379177 0.379177,-0.379177 0.758355,0.000000 l 1.363234,1.363234 c 0.379177,0.379177 1.226995,0.468641 0.847818,0.089463 l -1.452697,-1.452697 c -0.379177,-0.379177 0.379177,-0.379177 0.758355,0.000000 l 1.632181,1.632181 c 0.379177,0.379177 1.304882,0.546527 0.925705,0.167350 l -1.799531,-1.799531 c -0.379177,-0.379177 0.379177,-0.379177 0.758355,0.000000 l 2.082242,2.082242 c 0.379177,0.379177 1.421497,0.663143 1.042320,0.283965 l -2.366207,-2.366207 c -0.379177,-0.379177 0.379177,-0.379177 0.758355,0.000000 l 3.055291,3.055291 c 0.379177,0.379177 1.318689,0.560334 0.939512,0.181157 l -3.236448,-3.236448 c -0.379177,-0.379177 0.379177,-0.379177 0.758355,0.000000 l 4.057297,4.057297 M 84.105666,519.864666 l 5.945553,5.945553 c 0.379177,0.379177 1.137532,0.379177 0.758355,0.000000 l -4.571840,-4.571840 M 87.695899,521.938189 l 3.872030,3.872030 c 0.379177,0.379177 1.137532,0.379177 0.758355,0.000000 l -3.540573,-3.540573 M 90.327760,523.053340 l 2.756879,2.756879 c 0.379177,0.379177 1.137532,0.379177 0.758355,0.000000 l -2.424123,-2.424123 c -0.379177,-0.379177 1.041101,0.282746 1.420278,0.661923 l 1.762200,1.762200 c 0.379177,0.379177 1.137532,0.379177 0.758355,0.000000 l -1.683849,-1.683849 c -0.379177,-0.379177 0.754255,-0.004099 1.133433,0.375078 l 1.308771,1.308771 c 0.379177,0.379177 1.137532,0.379177 0.758355,0.000000 l -1.105184,-1.105184 c -0.379177,-0.379177 0.455521,-0.302833 0.834699,0.076344 l 1.028840,1.028840 c 0.379177,0.379177 1.137532,0.379177 0.758355,0.000000 l -0.928213,-0.928213 c -0.379177,-0.379177 0.381341,-0.377013 0.760519,0.002164 l 0.926050,0.926050 c 0.379177,0.379177 1.137532,0.379177 0.758355,0.000000 l -0.853967,-0.853967 c -0.379177,-0.379177 0.397150,-0.361204 0.776328,0.017973 l 0.835994,0.835994 c 0.379177,0.379177 1.137532,0.379177 0.758355,0.000000 l -0.913121,-0.913121 c -0.379177,-0.379177 0.425282,-0.333073 0.804459,0.046104 l 0.867017,0.867017 c 0.379177,0.379177 1.137532,0.379177 0.758355,0.000000 l -0.891770,-0.891770 c -0.379177,-0.379177 0.354424,-0.403931 0.733602,-0.024753 l 0.916523,0.916523 c 0.379177,0.379177 1.137532,0.379177 0.758355,0.000000 l -1.018459,-1.018459 c -0.379177,-0.379177 0.354603,-0.403752 0.733780,-0.024575 l 1.043034,1.043034 c 0.379177,0.379177 1.137532,0.379177 0.758355,0.000000 l -1.117968,-1.117968 c -0.379177,-0.379177 0.243775,-0.514580 0.622952,-0.135402 l 1.253370,1.253370 c 0.379177,0.379177 1.137532,0.379177 0.758355,0.000000 l -1.378348,-1.378348 c -0.379177,-0.379177 0.216992,-0.541362 0.596170,-0.162185 l 1.540533,1.540533 c 0.379177,0.379177 1.137532,0.379177 0.758355,0.000000 l -1.694777,-1.694777 c -0.379177,-0.379177 0.207775,-0.550580 0.586952,-0.171403 l 1.866180,1.866180 c 0.379177,0.379177 1.137532,0.379177 0.758355,0.000000 l -2.037582,-2.037582 c -0.379177,-0.379177 0.169117,-0.589238 0.548294,-0.210061 l 2.247643,2.247643 c 0.379177,0.379177 1.137532,0.379177 0.758355,0.000000 l -2.457000,-2.457000 c -0.379177,-0.379177 0.169820,-0.588535 0.548997,-0.209357 l 2.666357,2.666357 c 0.379177,0.379177 1.137532,0.379177 0.758355,0.000000 l -2.875715,-2.875715 c -0.379177,-0.379177 0.146902,-0.611452 0.526080,-0.232275 l 3.107989,3.107989 c 0.379177,0.379177 1.137532,0.379177 0.758355,0.000000 l -3.346621,-3.346621 c -0.379177,-0.379177 0.140545,-0.617809 0.519723,-0.238632 l 3.585254,3.585254 c 0.379177,0.379177 1.137532,0.379177 0.758355,0.000000 l -3.823886,-3.823886 c -0.379177,-0.379177 0.140545,-0.617809 0.519723,-0.238632 l 4.062518,4.062518 c 0.379177,0.379177 1.137532,0.379177 0.758355,0.000000 l -4.312941,-4.312941 c -0.379177,-0.379177 0.118457,-0.639898 0.497634,-0.260721 l 4.573661,4.573661 c 0.379177,0.379177 1.137532,0.379177 0.758355,0.000000 l -4.834382,-4.834382 c -0.379177,-0.379177 0.118457,-0.639898 0.497634,-0.260721 l 5.095103,5.095103 c 0.379177,0.379177 1.137532,0.379177 0.758355,0.000000 l -5.355823,-5.355823 c -0.379177,-0.379177 0.118457,-0.639898 0.497634,-0.260721 l 5.616544,5.616544 c 0.379177,0.379177 1.137532,0.379177 0.758355,0.000000 l -6.161648,-6.161648 M 119.484027,521.875420 l 3.934799,3.934799 c 0.379177,0.379177 0.413531,-0.344824 0.034354,-0.724001 l -1.081729,-1.081729 c -0.379177,-0.379177 -0.379177,-1.137532 0.000000,-0.758355 l 1.081729,1.081729 c 0.379177,0.379177 0.379177,-0.379177 0.000000,-0.758355 l -1.081729,-1.081729 c -0.379177,-0.379177 -0.379177,-1.137532 0.000000,-0.758355 l 1.081729,1.081729 c 0.379177,0.379177 0.379177,-0.379177 0.000000,-0.758355 l -1.366112,-1.366112 M 113.878858,513.995188 l -5.031137,-5.031137 c -0.379177,-0.379177 0.379177,-0.379177 0.758355,0.000000 l 5.956045,5.956045 c 0.379177,0.379177 0.827671,0.069316 0.448493,-0.309861 l -5.646184,-5.646184 c -0.379177,-0.379177 0.379177,-0.379177 0.758355,0.000000 l 5.336322,5.336322 c 0.379177,0.379177 0.827671,0.069316 0.448493,-0.309861 l -5.026461,-5.026461 c -0.379177,-0.379177 0.379177,-0.379177 0.758355,0.000000 l 4.698975,4.698975 c 0.379177,0.379177 0.805600,0.047245 0.426422,-0.331932 l -4.367043,-4.367043 c -0.379177,-0.379177 0.379177,-0.379177 0.758355,0.000000 l 4.035110,4.035110 c 0.379177,0.379177 0.796254,0.037900 0.417077,-0.341278 l -3.693832,-3.693832 c -0.379177,-0.379177 0.379177,-0.379177 0.758355,0.000000 l 3.344570,3.344570 c 0.379177,0.379177 0.788270,0.029915 0.409092,-0.349262 l -2.995308,-2.995308 c -0.379177,-0.379177 0.379177,-0.379177 0.758355,0.000000 l 2.641660,2.641660 c 0.379177,0.379177 0.777079,0.018724 0.397902,-0.360453 l -2.281207,-2.281207 c -0.379177,-0.379177 0.379177,-0.379177 0.758355,0.000000 l 2.205137,2.205137 M 123.737562,521.578828 l -3.897114,-3.897114 c -0.379177,-0.379177 0.072229,-0.686125 0.451407,-0.306948 l 3.161325,3.161325 c 0.379177,0.379177 0.379177,-0.379177 0.000000,-0.758355 l -2.731769,-2.731769 c -0.379177,-0.379177 0.049900,-0.708455 0.429077,-0.329277 l 2.302692,2.302692 c 0.379177,0.379177 0.379177,-0.379177 0.000000,-0.758355 l -1.879587,-1.879587 c -0.379177,-0.379177 0.043927,-0.714428 0.423105,-0.335250 l 1.456483,1.456483 c 0.379177,0.379177 0.379177,-0.379177 0.000000,-0.758355 l -1.012556,-1.012556 c -0.379177,-0.379177 -0.349422,-1.107777 0.029755,-0.728600 l 0.982801,0.982801 c 0.379177,0.379177 0.379177,-0.379177 0.000000,-0.758355 l -1.005439,-1.005439 c -0.379177,-0.379177 -0.401815,-1.160169 -0.022637,-0.780992 l 1.028076,1.028076 c 0.379177,0.379177 0.379177,-0.379177 -0.000000,-0.758355 l -1.335096,-1.335096 M 119.180304,508.679668 l 4.272876,4.272876 c 0.379177,0.379177 0.379177,-0.379177 0.000000,-0.758355 l -3.230138,-3.230138 c -0.379177,-0.379177 0.379177,-0.379177 0.758355,0.000000 l 2.471783,2.471783 c 0.379177,0.379177 0.379177,-0.379177 0.000000,-0.758355 l -1.713429,-1.713429 c -0.379177,-0.379177 0.379177,-0.379177 0.758355,0.000000 l 0.955074,0.955074 c 0.379177,0.379177 0.379177,-0.379177 0.000000,-0.758355 l -0.481102,-0.481102" />
                        </g>
                      </g>
                    </g>
                  </g>
                </g>
              </g>
            </g>
          </g>
          <g
             style="stroke-width:0.0629241;stroke-miterlimit:4;stroke-dasharray:none;stroke:#071108;stroke-opacity:1"
             id="g946"
             transform="matrix(0.74593782,0,0,0.74593782,24.008764,133.2638)">
            <g
               transform="translate(1.1117765,-0.22889516)"
               style="stroke-width:0.0629241;stroke-miterlimit:4;stroke-dasharray:none;stroke:#071108;stroke-opacity:1"
               id="g1047">
              <ellipse
                 style="opacity:1;fill:none;fill-opacity:1;stroke:#071108;stroke-width:0.0629241;stroke-linecap:round;stroke-linejoin:round;stroke-miterlimit:4;stroke-dasharray:none;stroke-dashoffset:0;stroke-opacity:1;paint-order:markers fill stroke"
                 id="path879"
                 cx="92.871437"
                 cy="515.69415"
                 rx="0.53707606"
                 ry="0.54195857" />
            </g>
          </g>
          <g
             id="g1166"
             transform="matrix(0.74593782,0,0,0.74593782,24.008764,133.2638)"
             style="stroke-width:0.0629241;stroke-miterlimit:4;stroke-dasharray:none;stroke:#071108;stroke-opacity:1">
            <g
               id="g1194"
               style="stroke-width:0.0629241;stroke-miterlimit:4;stroke-dasharray:none;stroke:#071108;stroke-opacity:1">
              <path
                 sodipodi:nodetypes="sccccsccccccccsscccss"
                 inkscape:connector-curvature="0"
                 id="path867"
                 d="m 99.759766,511.8457 c -8.410898,0.24169 -12.242645,2.98464 -15.822266,5.41992 l -0.523438,0.35743 0.544922,0.32422 c 4.200949,2.50364 9.172683,5.11449 14.873047,5.1289 1.945499,0.005 3.866449,0.22912 6.531249,-0.33203 2.61408,-0.55047 5.96486,-1.89463 10.76758,-4.85156 1.21709,0.69466 2.95969,2.23775 4.56901,3.42017 l 0.0238,-0.96253 c -1.46114,-1.07354 -2.64275,-2.17822 -3.87798,-2.9342 l 4.07322,-3.16105 -0.0226,-1.10818 -4.77905,3.80048 c -5.23654,-2.8559 -9.59747,-5.29581 -16.357424,-5.10157 z m 0.02148,0.81055 c 6.358134,-0.1827 10.477974,2.04346 15.494144,4.7793 -4.48138,2.71012 -7.66825,4.00816 -10.07812,4.51562 -2.54611,0.53616 -4.35934,0.32149 -6.36329,0.31641 -5.213597,-0.0132 -9.823292,-2.33829 -13.867187,-4.71289 3.414282,-2.32603 6.997998,-4.67384 14.814453,-4.89844 z"
                 style="color:#000000;font-style:normal;font-variant:normal;font-weight:normal;font-stretch:normal;font-size:medium;line-height:normal;font-family:sans-serif;font-variant-ligatures:normal;font-variant-position:normal;font-variant-caps:normal;font-variant-numeric:normal;font-variant-alternates:normal;font-feature-settings:normal;text-indent:0;text-align:start;text-decoration:none;text-decoration-line:none;text-decoration-style:solid;text-decoration-color:#000000;letter-spacing:normal;word-spacing:normal;text-transform:none;writing-mode:lr-tb;direction:ltr;text-orientation:mixed;dominant-baseline:auto;baseline-shift:baseline;text-anchor:start;white-space:normal;shape-padding:0;clip-rule:nonzero;display:inline;overflow:visible;visibility:visible;opacity:1;isolation:auto;mix-blend-mode:normal;color-interpolation:sRGB;color-interpolation-filters:linearRGB;solid-color:#000000;solid-opacity:1;vector-effect:none;fill:none;fill-opacity:1;fill-rule:evenodd;stroke:#071108;stroke-width:0.0629241;stroke-linecap:round;stroke-linejoin:miter;stroke-miterlimit:4;stroke-dasharray:none;stroke-dashoffset:0;stroke-opacity:1;color-rendering:auto;image-rendering:auto;shape-rendering:auto;text-rendering:auto;enable-background:accumulate" />
            </g>
          </g>
          <g
             id="g887" />
        </g>
      </g>
    </g>
  </g>
  <eggbot
     layer="0"
     node="0"
     lastpath="0"
     lastpathnc="0"
     totaldeltax="0"
     totaldeltay="0" />
</svg>
