<?xml version="1.0" encoding="UTF-8" standalone="no"?>
<!-- Created with Inkscape (http://www.inkscape.org/) -->

<svg
   xmlns:dc="http://purl.org/dc/elements/1.1/"
   xmlns:cc="http://creativecommons.org/ns#"
   xmlns:rdf="http://www.w3.org/1999/02/22-rdf-syntax-ns#"
   xmlns:svg="http://www.w3.org/2000/svg"
   xmlns="http://www.w3.org/2000/svg"
   xmlns:sodipodi="http://sodipodi.sourceforge.net/DTD/sodipodi-0.dtd"
   xmlns:inkscape="http://www.inkscape.org/namespaces/inkscape"
   width="297mm"
   height="210mm"
   viewBox="0 0 297 210"
   version="1.1"
   id="svg8"
   inkscape:version="0.92.2 (5c3e80d, 2017-08-06)"
   sodipodi:docname="spiral.svg">
  <defs
     id="defs2" />
  <sodipodi:namedview
     id="base"
     pagecolor="#ffffff"
     bordercolor="#666666"
     borderopacity="1.0"
     inkscape:pageopacity="0.0"
     inkscape:pageshadow="2"
     inkscape:zoom="0.35"
     inkscape:cx="520.03761"
     inkscape:cy="606.35508"
     inkscape:document-units="mm"
     inkscape:current-layer="layer1"
     showgrid="false"
     inkscape:window-width="1280"
     inkscape:window-height="995"
     inkscape:window-x="0"
     inkscape:window-y="0"
     inkscape:window-maximized="1" />
  <metadata
     id="metadata5">
    <rdf:RDF>
      <cc:Work
         rdf:about="">
        <dc:format>image/svg+xml</dc:format>
        <dc:type
           rdf:resource="http://purl.org/dc/dcmitype/StillImage" />
        <dc:title></dc:title>
      </cc:Work>
    </rdf:RDF>
  </metadata>
  <g
     inkscape:label="Layer 1"
     inkscape:groupmode="layer"
     id="layer1"
     transform="translate(0,-87)">
    <path
       sodipodi:type="spiral"
       style="fill:none;fill-rule:evenodd;stroke:#000000;stroke-width:0.22141418px;stroke-linecap:butt;stroke-linejoin:miter;stroke-opacity:1"
       id="path815"
       sodipodi:cx="67.990204"
       sodipodi:cy="237.20309"
       sodipodi:expansion="1"
       sodipodi:revolution="3"
       sodipodi:radius="54.419338"
       sodipodi:argument="-21.967897"
       sodipodi:t0="0"
       d="m 67.990204,237.20309 c -2.727762,-0.0634 -1.260272,-3.70826 0.105433,-4.53371 3.700977,-2.23693 7.925591,1.20596 8.962005,4.74458 1.853902,6.32976 -3.362831,12.25822 -9.383738,13.39029 -8.835922,1.66136 -16.668748,-5.5307 -17.818576,-14.02289 -1.532541,-11.31875 7.700091,-21.10943 18.662042,-22.24686 13.794497,-1.43134 25.565109,9.86962 26.675148,23.30119 1.344407,16.26744 -12.039102,30.02935 -27.940347,31.10344 -18.739066,1.26577 -34.49894,-14.20855 -35.53172,-32.5795 -1.192385,-21.21 16.377959,-38.97211 37.218652,-39.96001 23.68052,-1.12251 43.447787,18.54736 44.388287,41.85781 1.05511,26.15079 -20.716747,47.92528 -46.496952,48.81657 -28.620913,0.9895 -52.404156,-22.88614 -53.244863,-51.1361" />
  </g>
</svg>
